<svg xmlns="http://www.w3.org/2000/svg" viewBox="0 0 678.71 678.71"><defs><style>.cls-1{fill:#fff;}.cls-2{fill:#e0b500;}</style></defs><title>karobaaricon</title><g id="Layer_2" data-name="Layer 2"><g id="Layer_1-2" data-name="Layer 1"><circle class="cls-1" cx="339.36" cy="339.36" r="339.36"/><path d="M322.6,321.19H192.09v51.53Q203.82,366,230.48,355q11-3,26.46-3a64.54,64.54,0,0,1,38,11.73q18.71,12.93,18.7,33.4,0,27.64-31.59,40.16-13.12,5.18-22.65,5.17l46,56.21L280.22,517l-71-84.35,13.13-27.25a80.68,80.68,0,0,0,22.08,3q16.91,0,27.65-8,12.13-8.75,12.14-25.07,0-15.9-22.58-15.91-15.85,0-33.68,15.36a133.64,133.64,0,0,0-23.18,26.52Q192.09,420,192.09,433.38V517l-34.62-15.36V321.19H132.21V297.32h24.07q0-57-20.69-94.76-4-7.35-15.32-22.05-10.74-14.12-14.92-22.45h40.38Q157.48,169,170,194q21.28,42.53,21.29,103.31H322.6Z"/><path class="cls-2" d="M538.25,321.19H387.05V395.6a168.25,168.25,0,0,1,39.39-35.42Q442,350,457.48,350q31.42,0,52.92,24.07,19.7,22.08,19.69,47.95,0,29.83-28.84,60.58t-58.49,30.73q-15.12,0-31.83-13.53-5.18-4.17-25.47-24.86v40.78l-34.61-14.94V321.19H318.22V297.32h32.63q0-47.28-26.46-92.78-20.89-36-40-52.65H328q19.69,16.7,34.41,42.32,24.67,43.11,24.67,103.11h151.2ZM508,442.55q0-18.51-20.69-40-23.08-24.07-53.51-24.07-19.11,0-35.81,18.9-6.57,7.56-6.57,11.34,0,16.51,14.72,38.2,31,45.75,64.06,45.75,20.9,0,32.63-26.86A57.3,57.3,0,0,0,508,442.55Z"/><path class="cls-2" d="M596.94,499.84Q594.15,502.63,584,509t-12.73,6.36q-1,0-10.35-7.16-8.55-6.57-10.74-8.75l21.88-17.51Q574.45,481.94,596.94,499.84Z"/></g></g></svg>