<svg xmlns="http://www.w3.org/2000/svg" viewBox="0 0 683.13 152.51"><defs><style>.cls-1{fill:#e0b500;}</style></defs><title>karobaarAsset 2</title><g id="Layer_2" data-name="Layer 2"><g id="Layer_1-2" data-name="Layer 1"><path d="M89.83,70h-54V91.31A142.77,142.77,0,0,1,51.74,84a41.73,41.73,0,0,1,10.94-1.24A26.68,26.68,0,0,1,78.39,87.6q7.74,5.36,7.74,13.81,0,11.43-13.07,16.61a26.37,26.37,0,0,1-9.36,2.14l19,23.24L72.31,151,42.94,116.07l5.43-11.27A33.43,33.43,0,0,0,57.5,106q7,0,11.43-3.29,5-3.61,5-10.36,0-6.59-9.34-6.58-6.55,0-13.92,6.35a55.34,55.34,0,0,0-9.58,11q-5.25,7.76-5.24,13.28V151l-14.32-6.36V70H11.1V60.13h10q0-23.57-8.56-39.18a76.45,76.45,0,0,0-6.33-9.12A64.53,64.53,0,0,1,0,2.55H16.7q4.85,4.51,10,14.87Q35.54,35,35.54,60.13H89.83Z"/><path d="M169.21,70H114.42V83.24a1,1,0,0,1,.66.33.9.9,0,0,0,.58.33c-.44,0-.69,0-.74-.08q0-.41,12.25-2.63a50,50,0,0,1,9-.82q18.51,0,23.77,10.36,3.54,6.92,3.54,27.89v31.67q-1.72-.66-13.08-5.35c0-1.75-.36-2.88-1.07-3.37-2.91,1.7-5.29,3-7.16,3.86a47.78,47.78,0,0,1-20.64,4.2q-16.22,0-25-10.2a16.41,16.41,0,0,1-4.28-11q0-6.84,6.75-13.58,13.08-13.08,32.49-13.08,11.76,0,18.92,5.43V99.62q-3.62-4.62-7-6.17a21.44,21.44,0,0,0-9.34-1.4,65.5,65.5,0,0,0-24.27,4.85q-4.94,2.05-9.62,3.7V94.5c.71-.6,1.75-1.51,3.13-2.72a5.37,5.37,0,0,1,.41-.5V70H86.78V60.13h82.43Zm-18.84,52.15q0-3.62-8.64-6.49a39.3,39.3,0,0,0-11.92-2.39q-17.37,0-27.81,12.5-4.2,5-4.19,8.23,1.72,6,13.57,6a53.09,53.09,0,0,0,28-7.65Q150.38,125.68,150.37,122.15Z"/><path d="M251.14,70H168V60.13h83.17Zm-6.83,29.62q0,4.84-5.84,10.94a35.08,35.08,0,0,1-10.37,7.73l-12.33-14a21,21,0,0,0,10.61-4.11c3.83-2.74,5.76-5.87,5.76-9.38q0-2.79-3.62-4.77a12.36,12.36,0,0,0-6.17-1.81q-6.34,0-13.58,6.09-14.72,12.35-14.72,27.31v34.88l-15.79-8.23V83.41h15.79v6.25q3.54-3.52,14.69-7.4A34,34,0,0,1,220,80.37a26.47,26.47,0,0,1,20.31,9.13A14.63,14.63,0,0,1,244.31,99.62Z"/><path class="cls-1" d="M426.18,70H363.67v30.77A69.3,69.3,0,0,1,380,86.13a23.25,23.25,0,0,1,12.83-4.2,28.2,28.2,0,0,1,21.88,9.95q8.15,9.14,8.14,19.83,0,12.33-11.93,25t-24.18,12.7q-6.26,0-13.16-5.59-2.15-1.73-10.53-10.28v16.86l-14.31-6.17V70H335.21V60.13H348.7q0-19.55-10.94-38.36Q329.12,6.9,321.22,0h18a65.11,65.11,0,0,1,14.23,17.5q10.2,17.82,10.2,42.63h62.51Zm-12.5,50.18q0-7.65-8.55-16.53-9.56-10-22.13-10-7.9,0-14.81,7.82c-1.81,2.08-2.71,3.65-2.71,4.69q0,6.83,6.08,15.79,12.84,18.93,26.49,18.92,8.64,0,13.49-11.1A23.7,23.7,0,0,0,413.68,120.18Z"/><path class="cls-1" d="M505.81,70H451V83.24a.93.93,0,0,1,.65.33.92.92,0,0,0,.58.33c-.44,0-.69,0-.74-.08q0-.41,12.26-2.63a49.78,49.78,0,0,1,9-.82q18.51,0,23.78,10.36,3.53,6.92,3.53,27.89v31.67q-1.73-.66-13.08-5.35c0-1.75-.35-2.88-1.07-3.37-2.9,1.7-5.29,3-7.15,3.86a47.86,47.86,0,0,1-20.65,4.2q-16.2,0-25-10.2a16.4,16.4,0,0,1-4.27-11q0-6.84,6.74-13.58,13.08-13.08,32.49-13.08,11.77,0,18.92,5.43V99.62q-3.62-4.62-7-6.17a21.44,21.44,0,0,0-9.34-1.4,65.44,65.44,0,0,0-24.26,4.85q-4.93,2.05-9.63,3.7V94.5c.72-.6,1.76-1.51,3.13-2.72.22-.28.36-.44.41-.5V70H423.39V60.13h82.42ZM487,122.15q0-3.62-8.63-6.49a39.29,39.29,0,0,0-11.93-2.39q-17.36,0-27.8,12.5-4.2,5-4.2,8.23,1.72,6,13.57,6a53.07,53.07,0,0,0,28-7.65Q487,125.68,487,122.15Z"/><path class="cls-1" d="M585.85,70H531.06V83.24a1,1,0,0,1,.66.33.9.9,0,0,0,.58.33c-.44,0-.69,0-.74-.08q0-.41,12.25-2.63a50,50,0,0,1,9-.82q18.51,0,23.77,10.36,3.54,6.92,3.54,27.89v31.67q-1.73-.66-13.08-5.35c0-1.75-.35-2.88-1.07-3.37-2.9,1.7-5.29,3-7.15,3.86a47.86,47.86,0,0,1-20.65,4.2q-16.2,0-25-10.2a16.41,16.41,0,0,1-4.28-11q0-6.84,6.75-13.58,13.08-13.08,32.49-13.08,11.76,0,18.92,5.43V99.62q-3.62-4.62-7-6.17a21.44,21.44,0,0,0-9.34-1.4,65.4,65.4,0,0,0-24.26,4.85q-4.93,2.05-9.63,3.7V94.5c.71-.6,1.76-1.51,3.13-2.72.22-.28.35-.44.41-.5V70H503.43V60.13h82.42ZM567,122.15q0-3.62-8.64-6.49a39.24,39.24,0,0,0-11.92-2.39q-17.36,0-27.81,12.5-4.18,5-4.19,8.23,1.72,6,13.57,6a53.09,53.09,0,0,0,28-7.65Q567,125.68,567,122.15Z"/><path class="cls-1" d="M667.78,70H584.61V60.13h83.17ZM661,99.62q0,4.84-5.84,10.94a35,35,0,0,1-10.36,7.73l-12.34-14A21,21,0,0,0,643,100.19q5.76-4.11,5.76-9.38,0-2.79-3.62-4.77A12.33,12.33,0,0,0,639,84.23q-6.33,0-13.57,6.09-14.73,12.35-14.73,27.31v34.88l-15.79-8.23V83.41h15.79v6.25q3.55-3.52,14.69-7.4a34,34,0,0,1,11.23-1.89,26.47,26.47,0,0,1,20.3,9.13A14.63,14.63,0,0,1,661,99.62Z"/><path d="M325.5,100a78.77,78.77,0,0,1-6.2-6.64,5.79,5.79,0,0,1-1-1.16.7.7,0,0,1-.17-.13l-.09-.11-.23-.18-.09-.07a1.29,1.29,0,0,1-.16-.17s0,0,0,0l-.28-.37-.38-.31-.13-.14c-.12-.15-.22-.31-.34-.46l-.23-.22c-.45-.36-.91-.72-1.36-1.12l-.1-.08-.42-.3-1-.69a16,16,0,0,0-1.79-1l-1.12-.51-1.06-.39-1.06-.4-.89-.37-.53-.22-.46-.19-.55-.23-1.47-.61,0,0h0l-.16-.06h0q-11.26-3-17-3-10.44,0-17.85,5.1a40.12,40.12,0,0,0-10.52,10.77q-4.86,7.25-4.86,14,0,14.64,15,27.14,14.32,11.93,27.81,11.93a35.57,35.57,0,0,0,17.19-4.28q16.69-9.06,16.7-27.92Q330.52,106.07,325.5,100Zm-20.07,30.88q-12.18,9.88-22.38,9.89a16.63,16.63,0,0,1-8.14-2.23q-8.88-5-8.88-12.69,0-16.56,13.73-27.27,11.78-9.15,22-9.14a18.35,18.35,0,0,1,6.5,1.48q10.18,4,10.2,15.57Q318.43,120.32,305.43,130.86Z"/><polygon points="248.18 60.13 248.18 70 301.77 70 301.77 69.99 325.08 69.99 325.08 70 337.43 70 337.43 60.13 248.18 60.13"/><path class="cls-1" d="M683.13,142.32a58.37,58.37,0,0,1-8.49,6q-6.66,4.18-8.36,4.18c-.44,0-2.7-1.57-6.8-4.7q-5.61-4.32-7.05-5.75l14.37-11.5Q668.36,130.56,683.13,142.32Z"/></g></g></svg>