<svg xmlns="http://www.w3.org/2000/svg" viewBox="0 0 530.61 500.56"><defs><style>.cls-1{isolation:isolate;}.cls-2{opacity:0.1;}.cls-3,.cls-8{opacity:0.2;}.cls-3{mix-blend-mode:multiply;}.cls-4{fill:#656865;}.cls-170,.cls-5{fill:#0e0f17;}.cls-6{fill:#91d0e5;}.cls-47,.cls-7{fill:#fff;}.cls-10,.cls-100,.cls-101,.cls-102,.cls-103,.cls-104,.cls-105,.cls-106,.cls-107,.cls-108,.cls-109,.cls-11,.cls-110,.cls-111,.cls-112,.cls-113,.cls-114,.cls-115,.cls-116,.cls-117,.cls-118,.cls-119,.cls-12,.cls-120,.cls-121,.cls-122,.cls-123,.cls-124,.cls-125,.cls-126,.cls-127,.cls-128,.cls-129,.cls-130,.cls-131,.cls-132,.cls-133,.cls-134,.cls-135,.cls-136,.cls-137,.cls-138,.cls-139,.cls-140,.cls-141,.cls-142,.cls-143,.cls-144,.cls-145,.cls-146,.cls-147,.cls-148,.cls-149,.cls-150,.cls-151,.cls-152,.cls-153,.cls-154,.cls-155,.cls-156,.cls-157,.cls-158,.cls-159,.cls-160,.cls-161,.cls-162,.cls-163,.cls-164,.cls-165,.cls-166,.cls-167,.cls-168,.cls-169,.cls-170,.cls-171,.cls-172,.cls-173,.cls-175,.cls-176,.cls-177,.cls-178,.cls-179,.cls-180,.cls-181,.cls-182,.cls-59,.cls-61,.cls-62,.cls-63,.cls-64,.cls-65,.cls-66,.cls-67,.cls-68,.cls-69,.cls-7,.cls-70,.cls-71,.cls-72,.cls-73,.cls-74,.cls-75,.cls-76,.cls-77,.cls-78,.cls-79,.cls-8,.cls-80,.cls-81,.cls-82,.cls-83,.cls-84,.cls-85,.cls-86,.cls-87,.cls-88,.cls-89,.cls-9,.cls-90,.cls-91,.cls-92,.cls-93,.cls-94,.cls-95,.cls-96,.cls-97,.cls-98,.cls-99{fill-rule:evenodd;}.cls-7{opacity:0.6;}.cls-8{fill:#1e899e;}.cls-9{fill:#efd1bc;}.cls-10{fill:#2d2d2d;}.cls-11{fill:#fddfc9;}.cls-12{fill:#343433;}.cls-13{fill:#cdcdcd;}.cls-14{fill:#1f945e;}.cls-15{fill:#008044;}.cls-16{fill:#344659;}.cls-17{fill:#a21c35;}.cls-18{fill:#e81a48;}.cls-19{fill:#ee4361;}.cls-20{fill:#a3cd39;}.cls-21{fill:#bbd64b;}.cls-22{fill:#cede5f;}.cls-23{fill:#cb7829;}.cls-24{fill:#faae44;}.cls-25{fill:#f6d857;}.cls-26{fill:#9f9f9f;}.cls-27{fill:#e3e4e3;}.cls-28{fill:#d8d8d8;}.cls-29{fill:#e9e9e8;}.cls-30{fill:#c2c1c1;}.cls-31{fill:#f0efef;}.cls-32{fill:#d4d3d3;}.cls-33{fill:#aeadad;}.cls-34{fill:#c9c9c8;}.cls-35{fill:#f5f5f5;}.cls-36{fill:#d6d5d3;}.cls-37{fill:#202525;}.cls-38{fill:#1c1d1e;}.cls-39{fill:#717474;}.cls-40{fill:#757c7e;}.cls-41{fill:#4a4f4f;}.cls-42{fill:#a5a5a5;}.cls-43{fill:#bfbebe;}.cls-44{fill:#2d3031;}.cls-45{fill:#565d5f;}.cls-46{fill:#e096c0;}.cls-48{fill:#dbdad9;}.cls-49{fill:#17763b;}.cls-50{fill:#44b549;}.cls-51{fill:#bb9431;}.cls-52{fill:#e4b940;}.cls-53{fill:#efc7a3;}.cls-54{fill:#71451b;}.cls-55{opacity:0.26;}.cls-56{fill:#829191;}.cls-57{fill:#d4502a;}.cls-58{fill:#f1c559;}.cls-59,.cls-60{fill:#414658;}.cls-174,.cls-61{fill:#0c0d15;}.cls-62{fill:#3a3e4a;}.cls-63{fill:#3a3d4a;}.cls-64{fill:#383b49;}.cls-65{fill:#393c48;}.cls-66{fill:#383b48;}.cls-67{fill:#373a46;}.cls-68{fill:#363946;}.cls-69{fill:#353844;}.cls-70{fill:#343844;}.cls-71{fill:#353744;}.cls-72{fill:#343744;}.cls-73{fill:#333642;}.cls-74{fill:#333542;}.cls-75{fill:#313441;}.cls-76{fill:#313340;}.cls-77{fill:#303340;}.cls-78{fill:#313440;}.cls-79{fill:#30323f;}.cls-80{fill:#2f323f;}.cls-81{fill:#2f323e;}.cls-82{fill:#2e313e;}.cls-83{fill:#2e313d;}.cls-84{fill:#2d313e;}.cls-85{fill:#2d303c;}.cls-86{fill:#2d2f3c;}.cls-87{fill:#2c2e3b;}.cls-88{fill:#2b2e3b;}.cls-89{fill:#2b2f3a;}.cls-90{fill:#2b2d3a;}.cls-91{fill:#2a2d3a;}.cls-92{fill:#2a2e3a;}.cls-93{fill:#2a2c39;}.cls-94{fill:#292c39;}.cls-95{fill:#2a2c38;}.cls-96{fill:#292c38;}.cls-97{fill:#282b38;}.cls-98{fill:#282b37;}.cls-99{fill:#282a37;}.cls-100{fill:#272a37;}.cls-101{fill:#272937;}.cls-102{fill:#262a37;}.cls-103{fill:#262935;}.cls-104{fill:#262835;}.cls-105{fill:#252835;}.cls-106{fill:#252734;}.cls-107{fill:#242733;}.cls-108{fill:#242633;}.cls-109{fill:#232633;}.cls-110{fill:#232632;}.cls-111{fill:#232532;}.cls-112{fill:#222531;}.cls-113{fill:#222431;}.cls-114{fill:#222430;}.cls-115{fill:#222330;}.cls-116{fill:#202331;}.cls-117{fill:#21232f;}.cls-118{fill:#20222f;}.cls-119{fill:#1f222e;}.cls-120{fill:#1f212e;}.cls-121{fill:#1e212d;}.cls-122{fill:#1e202d;}.cls-123{fill:#1d202c;}.cls-124{fill:#1d1f2c;}.cls-125{fill:#1b1f2b;}.cls-126{fill:#1c1e2b;}.cls-127{fill:#1b1e2b;}.cls-128{fill:#1b1d2a;}.cls-129{fill:#1b1d29;}.cls-130{fill:#1a1d29;}.cls-131{fill:#1a1c29;}.cls-132{fill:#191c28;}.cls-133{fill:#181b28;}.cls-134{fill:#191b27;}.cls-135{fill:#171b27;}.cls-136{fill:#181a27;}.cls-137{fill:#181a26;}.cls-138{fill:#171a26;}.cls-139{fill:#161926;}.cls-140{fill:#171925;}.cls-141{fill:#161925;}.cls-142{fill:#151825;}.cls-143{fill:#161723;}.cls-144{fill:#141723;}.cls-145{fill:#141724;}.cls-146{fill:#151723;}.cls-147{fill:#131623;}.cls-148{fill:#141622;}.cls-149{fill:#131622;}.cls-150{fill:#141521;}.cls-151{fill:#121521;}.cls-152{fill:#131521;}.cls-153{fill:#131420;}.cls-154{fill:#121520;}.cls-155{fill:#12141f;}.cls-156{fill:#11141e;}.cls-157{fill:#10141e;}.cls-158{fill:#11131e;}.cls-159{fill:#12141e;}.cls-160{fill:#11121d;}.cls-161{fill:#10121d;}.cls-162{fill:#10121c;}.cls-163{fill:#11121c;}.cls-164{fill:#0f111b;}.cls-165{fill:#0f121b;}.cls-166{fill:#0f111a;}.cls-167{fill:#0f101a;}.cls-168{fill:#0f1119;}.cls-169{fill:#0e1119;}.cls-171{fill:#0d0f17;}.cls-172{fill:#0e0e16;}.cls-173{fill:#0d0f16;}.cls-175{fill:#434343;}.cls-176{fill:#6fcbd9;}.cls-177{fill:#ddda56;}.cls-178{fill:#b7b145;}.cls-179{fill:#efecec;}.cls-180{fill:#e78224;}.cls-181{fill:#f9c8ca;}.cls-182{fill:#1a1a1b;}.cls-183{fill:#efb98f;}.cls-184{fill:#d16a28;}.cls-185{fill:#ed2237;}.cls-186{fill:#e4ad7c;}.cls-187{fill:#eab183;}.cls-188{fill:#3f3f3e;}.cls-189{fill:#104056;}.cls-190{fill:#81401d;}</style></defs><title>bcanblackAsset 1</title><g class="cls-1"><g id="Layer_2" data-name="Layer 2"><g id="Layer_1-2" data-name="Layer 1"><path class="cls-2" d="M219.69,459.74c-2.79,8.61-18,11.41-34,6.24s-26.72-16.36-23.94-25,18-11.41,34-6.24S222.48,451.12,219.69,459.74Z"/><g class="cls-3"><path d="M195.11,187.62a1.07,1.07,0,0,0-1.13,0c-14.7-8.55-38.63-8.55-53.42,0a1.08,1.08,0,0,0-1.12,0,42.41,42.41,0,0,1,5.09-2.49c1.57-.6,3.68-1.33,5.28-1.84.83-.27,2-.53,2.82-.74a65.61,65.61,0,0,1,14.68-1.65,64.57,64.57,0,0,1,14.7,1.66c.87.21,2,.49,2.89.76,1.59.51,3.69,1.25,5.24,1.85.82.32,1.88.83,2.67,1.22S194.42,187.25,195.11,187.62Z"/><path d="M139.44,187.61l-12.55,7.25-12.56,7.25-12.56,7.25-12.55,7.25-12.56,7.25L64.1,231.11l-12.56,7.25L39,245.61l-12.56,7.25-12.56,7.25a1.08,1.08,0,0,1,1.12,0l125.57-72.5A1.08,1.08,0,0,0,139.44,187.61Z"/><path d="M516.89,374.61l-32.18-18.7-32.17-18.7-32.18-18.7-32.18-18.7L356,281.12l-32.18-18.7-32.17-18.7L259.47,225l-32.18-18.7-32.18-18.7a1.07,1.07,0,0,0-1.13,0l321.78,187A1.07,1.07,0,0,1,516.89,374.61Z"/><path d="M15,260.15c-14.8,8.54-14.88,22.39-.17,30.94l321.77,187c14.7,8.55,38.62,8.55,53.42,0l125.57-72.49c14.79-8.55,14.88-22.41.18-30.95L194,187.65c-14.7-8.55-38.63-8.55-53.42,0Z"/><path d="M0,282.72v1.74H0A26.5,26.5,0,0,0,.25,288a25.92,25.92,0,0,0,.73,3.5,23.69,23.69,0,0,0,2.32,5.42,30.51,30.51,0,0,0,1.77,2.6A20.84,20.84,0,0,0,7,301.69c.92.87,2.18,2,3.18,2.78s2.48,1.69,3.57,2.36L206.8,419l128.71,74.8a2.68,2.68,0,0,1-1-1.39,2.68,2.68,0,0,0,1,1.39c.69.37,1.6.89,2.3,1.24s1.85.9,2.66,1.22c1.56.6,3.66,1.33,5.25,1.84.85.28,2,.55,2.88.76a64,64,0,0,0,14.7,1.67A65.61,65.61,0,0,0,378,498.91c.85-.21,2-.48,2.82-.74,1.6-.51,3.71-1.24,5.27-1.84a40.11,40.11,0,0,0,5.09-2.5l125.57-72.49h0c.6-.37,1.41-.82,2-1.23a29.6,29.6,0,0,0,6.34-5.58,23.53,23.53,0,0,0,4.58-8.61,25.75,25.75,0,0,0,1-7.2,14.8,14.8,0,0,1-.42,3.49,14.8,14.8,0,0,0,.42-3.49V397a27.59,27.59,0,0,0-.2-3.19,26.46,26.46,0,0,0-.69-3.52A23.55,23.55,0,0,0,527,384a25.81,25.81,0,0,0-2.31-3.11c-.66-.76-1.63-1.68-2.37-2.37a20.19,20.19,0,0,0-1.68-1.38c-1.09-.78-2.57-1.77-3.71-2.48a1.07,1.07,0,0,0-1.13,0c14.7,8.54,14.62,22.4-.18,30.95L390,478.08h0c-14.8,8.55-38.72,8.55-53.42,0l-321.77-187C.11,282.54.19,268.69,15,260.15a1.08,1.08,0,0,0-1.12,0c-.6.37-1.43.84-2,1.25a44.48,44.48,0,0,0-3.55,2.72,36.1,36.1,0,0,0-2.66,2.73,19.11,19.11,0,0,0-1.75,2.35,23.51,23.51,0,0,0-1.63,2.91,24,24,0,0,0-1.35,3.69,24.32,24.32,0,0,0-.71,3.57A26.6,26.6,0,0,0,0,282.72Z"/></g><g class="cls-1"><path class="cls-4" d="M195.11,177.39a1.07,1.07,0,0,0-1.13,0c-14.7-8.54-38.63-8.54-53.42,0a1.06,1.06,0,0,0-1.12,0,41.69,41.69,0,0,1,5.09-2.5c1.57-.6,3.68-1.33,5.28-1.84.83-.26,2-.53,2.82-.73a65.6,65.6,0,0,1,14.68-1.66,64.56,64.56,0,0,1,14.7,1.67c.87.21,2,.48,2.89.76,1.59.51,3.69,1.24,5.24,1.85.82.31,1.88.82,2.67,1.21S194.42,177,195.11,177.39Z"/><path class="cls-4" d="M139.44,177.39l-12.55,7.25-12.56,7.25-12.56,7.25-12.55,7.25-12.56,7.25L64.1,220.89l-12.56,7.25L39,235.39l-12.56,7.25-12.56,7.25a1.06,1.06,0,0,1,1.12,0l125.57-72.5A1.06,1.06,0,0,0,139.44,177.39Z"/><path class="cls-4" d="M516.89,364.39l-32.18-18.7L452.54,327l-32.18-18.7-32.18-18.7L356,270.89l-32.18-18.7-32.17-18.7-32.18-18.7-32.18-18.7-32.18-18.7a1.07,1.07,0,0,0-1.13,0l321.78,187A1.07,1.07,0,0,1,516.89,364.39Z"/><path class="cls-4" d="M15,249.92c-14.8,8.54-14.88,22.4-.17,30.94l321.77,187c14.7,8.54,38.62,8.54,53.42,0l125.57-72.5c14.79-8.54,14.88-22.4.18-30.94L194,177.42c-14.7-8.54-38.63-8.54-53.42,0Z"/><path class="cls-5" d="M0,272.49v1.75H0a26.61,26.61,0,0,0,.24,3.53A25.4,25.4,0,0,0,1,281.26a23.76,23.76,0,0,0,2.32,5.43c.49.8,1.19,1.85,1.77,2.6A20.84,20.84,0,0,0,7,291.47c.92.87,2.18,2,3.18,2.77s2.48,1.69,3.57,2.37L206.8,408.81l128.71,74.8a2.68,2.68,0,0,1-1-1.39,2.68,2.68,0,0,0,1,1.39c.69.37,1.6.89,2.3,1.24s1.85.9,2.66,1.21c1.56.6,3.66,1.34,5.25,1.85.85.27,2,.55,2.88.76a64.57,64.57,0,0,0,14.7,1.66A65.61,65.61,0,0,0,378,488.68c.85-.2,2-.47,2.82-.74,1.6-.5,3.71-1.23,5.27-1.83a40.11,40.11,0,0,0,5.09-2.5l125.57-72.5h0c.6-.36,1.41-.82,2-1.22a37.63,37.63,0,0,0,3.48-2.66,39.36,39.36,0,0,0,2.86-2.92,23.74,23.74,0,0,0,1.88-2.58,24.06,24.06,0,0,0,2.7-6,25.67,25.67,0,0,0,1-7.19,14.72,14.72,0,0,1-.42,3.48,14.72,14.72,0,0,0,.42-3.48v-1.75a27.73,27.73,0,0,0-.2-3.19,26.79,26.79,0,0,0-.69-3.52,23.82,23.82,0,0,0-2.76-6.32,25.94,25.94,0,0,0-2.31-3.1,33.12,33.12,0,0,0-2.37-2.37,18.49,18.49,0,0,0-1.68-1.39c-1.09-.78-2.57-1.77-3.71-2.47a1.07,1.07,0,0,0-1.13,0c14.7,8.54,14.62,22.4-.18,30.94L390,467.86h0c-14.8,8.54-38.72,8.54-53.42,0l-321.77-187C.11,272.32.19,258.46,15,249.92a1.06,1.06,0,0,0-1.12,0c-.6.37-1.43.83-2,1.25a44.48,44.48,0,0,0-3.55,2.72,37.93,37.93,0,0,0-2.66,2.72,19.9,19.9,0,0,0-1.75,2.35,24.31,24.31,0,0,0-1.63,2.92,24,24,0,0,0-1.35,3.69,24.39,24.39,0,0,0-.71,3.56A26.71,26.71,0,0,0,0,272.49Z"/></g><polygon class="cls-6" points="284.02 423.24 444.06 330.85 471.06 346.54 311.02 438.93 284.02 423.24"/><path class="cls-6" d="M330.68,449.28a6.25,6.25,0,0,1-3.05-.7L315.1,441.3l160-92.39,14.56,8.45c.49.29.65.54.66.61a1.75,1.75,0,0,1-.68.59l-155.92,90A6.36,6.36,0,0,1,330.68,449.28Z"/><polygon class="cls-6" points="98.6 315.48 258.63 223.09 417.61 315.48 257.58 407.87 98.6 315.48"/><polygon class="cls-6" points="261.65 410.24 421.69 317.85 439.98 328.48 279.95 420.87 261.65 410.24"/><path class="cls-6" d="M50.43,287.49c-.49-.28-.65-.53-.66-.6a1.66,1.66,0,0,1,.68-.59l155.92-90a6.36,6.36,0,0,1,3.07-.71,6.25,6.25,0,0,1,3.05.71l20.32,11.8-160,92.4Z"/><polygon class="cls-6" points="76.85 302.85 236.88 210.45 254.55 220.72 94.52 313.11 76.85 302.85"/><path class="cls-7" d="M227.15,208.6l-77.27,44.48L72.6,297.56c-.32.19-.37.43-.09.59l120,69.09,120,69.06a1.11,1.11,0,0,0,1-.05l77.27-44.48,77.28-44.48c.28-.16.37-.43.09-.59q-59.94-34.51-120-69.07l-120-69.09A1.17,1.17,0,0,0,227.15,208.6Z"/><polygon class="cls-8" points="251.46 241.98 373.74 339.19 259 384.73 136.71 287.53 251.46 241.98"/><polygon class="cls-8" points="243.47 278.96 316.8 309.54 266.98 347.76 193.65 317.18 243.47 278.96"/><polygon class="cls-8" points="255.34 291.99 290.15 323.12 255.11 334.72 220.3 303.6 255.34 291.99"/><path class="cls-9" d="M372.32,254.74s-8.15-11-2.78-15.62c0,0,15.51-8.82,18-9.82,16.29-6.39,12,8.94,12,8.94-3.55,10.19-14.29,33.93-3.84,37.07,1,.3,3.39,1.12,3.44,1.13,4.9,1.62-8,3.41-8.92,3.42-1.62.15-4.81,0-6.7-1.83a14.6,14.6,0,0,1,.1-4.63c1.58-9.24-1.5-15.71,3.16-26.61Z"/><path class="cls-10" d="M390.13,277.06c3.35,1.58,8.26,1.66,6.76-1.28a3.44,3.44,0,0,0-1.14-.47c-.05,0,4.23-1.07,5-.15.73,2.2-2.8,5.76-4.62,6.25-5.25,1.45-5.07-.35-9.09-.64l-.39,1.69c-.29.92-3.32.45-3.21,0-.09-2.89.34-2.79-.87-5.66a5.5,5.5,0,0,1,1.13-3.38s1.18,0,3.13,1.58A26.93,26.93,0,0,0,390.13,277.06Z"/><path class="cls-11" d="M380.74,256.71s-8.15-11-2.77-15.61c0,0,16.7-5.23,19.23-6.22,16.29-6.39,12,8.94,12,8.94-3.55,10.18-14.29,33.92-3.85,37.06,1,.3,3.39,1.12,3.44,1.13,4.9,1.63-8,3.42-8.92,3.43-1.62.14-4.81,0-6.69-1.84a14.28,14.28,0,0,1,.09-4.63c1.59-9.24-1.5-15.71,3.16-26.61Z"/><path class="cls-12" d="M399.75,282.63c3.35,1.59,8.26,1.67,6.76-1.27a3.32,3.32,0,0,0-1.14-.48c-.05,0,4.24-1.07,5-.15.73,2.21-2.79,5.76-4.62,6.25-5.25,1.45-5.07-.35-9.09-.64l-.38,1.69c-.3.92-3.33.45-3.21,0-.1-2.88.33-2.78-.88-5.66a5.5,5.5,0,0,1,1.13-3.38s1.18,0,3.13,1.58A26.93,26.93,0,0,0,399.75,282.63Z"/><path class="cls-13" d="M273.07,136.09a8.22,8.22,0,0,1,1.1,5.07c-.22,3.19-.7,4.42-1.51,5s-1.83.74-3.75.48-5-2.13-6.16-2.48-.82-.36-5-1.66c-5.82-1.83-6.82-3.38-7.3-4.93a7.07,7.07,0,0,1,0-3.38c4.88.94,11.44,2.53,13.29.56S273.07,136.09,273.07,136.09Z"/><path class="cls-14" d="M273.59,134.35a8.29,8.29,0,0,1,1.11,5.07c-.23,3.19-.7,4.42-1.52,5A6.2,6.2,0,0,1,269,145a9.26,9.26,0,0,1-3.35-.93,21.09,21.09,0,0,0-6.43-2.39c-5.08-1.09-7-3.5-7.9-4.88-.71-1.13-2.12-4.41,1.67-3.51,8.54,2,10,.08,11.36-.28C266.93,132.36,273.59,134.35,273.59,134.35Z"/><path class="cls-15" d="M269.7,141c1.13-2.72,4.59-4.41,4.59-4.41l.17-.08a9.64,9.64,0,0,1,.24,2.94c-.23,3.19-.7,4.42-1.52,5a6.14,6.14,0,0,1-4.35,1.52l-.29,0A18,18,0,0,1,269.7,141Z"/><path class="cls-16" d="M261.6,135.4c.71.8,5,5,9.3,5,3.58,0,4.16-2.05,4-3.42l1.52-15.6c-4.85,0-9.71-.13-14.57-1.49Z"/><path class="cls-16" d="M304.56,110.55l-8.63-4-18.26-7.38c-4.58-2.17-15.94-2.08-15.7,7.43l-.17,13.32c4.86,1.36,9.72,1.48,14.57,1.49l.2-2,4.23-.57s13.62,6,19.5,5.38C310.81,123.18,304.56,110.55,304.56,110.55Z"/><polygon class="cls-17" points="345.43 386.28 345.43 386.28 373.54 402.55 373.54 402.55 373.49 275.34 345.43 259.06 345.43 259.06 345.43 259.06 345.43 386.28"/><polygon class="cls-18" points="373.45 402.43 373.45 402.43 401.71 386.16 401.71 386.16 401.71 386.16 401.71 258.95 401.71 258.95 373.45 275.22 373.45 402.43"/><polygon class="cls-19" points="345.24 259 373.45 275.27 401.61 259 373.5 242.73 345.24 259"/><polygon class="cls-20" points="188.44 270.78 188.44 270.78 232.5 296.29 232.5 296.29 232.43 96.86 188.44 71.34 188.44 71.34 188.44 71.34 188.44 270.78"/><polygon class="cls-21" points="232.37 296.1 232.37 296.11 276.67 270.6 276.67 270.6 276.67 270.6 276.67 71.16 276.67 71.16 232.37 96.67 232.37 296.1"/><polygon class="cls-22" points="188.14 71.25 232.37 96.75 276.51 71.25 232.44 45.74 188.14 71.25"/><polygon class="cls-23" points="265.51 284.18 265.51 284.18 300.26 304.29 300.26 304.29 300.2 147.06 265.51 126.94 265.51 126.94 265.51 126.94 265.51 284.18"/><polygon class="cls-24" points="300.15 304.14 300.15 304.14 335.07 284.03 335.07 284.03 335.07 284.03 335.07 126.8 335.07 126.8 300.15 146.91 300.15 304.14"/><polygon class="cls-25" points="265.28 126.86 300.15 146.97 334.95 126.86 300.2 106.75 265.28 126.86"/><path class="cls-26" d="M222.77,90.41l31.81-18.17a.78.78,0,0,0,.3-.7,2.22,2.22,0,0,0-.11-.56L223,89.14a1.92,1.92,0,0,1,.11.57.78.78,0,0,1-.3.7Z"/><path class="cls-27" d="M253,69.64a.91.91,0,0,1,1,.19h0l15.19,9.08L237.53,97.45,222.14,88h0l0,0h0c-.43-.28-.73-.26-.92-.14Z"/><path class="cls-28" d="M269.27,79a.57.57,0,0,0-.11-.11L237.54,97.46l.12.11a.58.58,0,0,1,.12.36.17.17,0,0,1-.07.14l31.62-18.55a.17.17,0,0,0,.07-.13A.52.52,0,0,0,269.27,79Z"/><polygon class="cls-29" points="237.54 97.46 269.16 78.92 269.15 78.91 237.53 97.45 237.54 97.46 237.54 97.46"/><path class="cls-30" d="M222,87.86c-.61-.33-1.09,0-1.08.65A2.39,2.39,0,0,0,222,90.35c.6.33,1.08,0,1.07-.64a1.92,1.92,0,0,0-.11-.57l.24.16L237.49,98c.17.1.28,0,.29-.1a.57.57,0,0,0-.25-.48L222.09,88l-.05,0,0,0Z"/><path class="cls-31" d="M251.86,72.37a.15.15,0,0,0,0,.28l1.38.82a.54.54,0,0,0,.48,0l1.4-.79c.14-.08.14-.2,0-.28l-1.37-.82a.54.54,0,0,0-.48,0Z"/><path class="cls-31" d="M249.41,73.75a.15.15,0,0,0,0,.28l1.38.82a.54.54,0,0,0,.48,0l1.4-.8a.15.15,0,0,0,0-.28L251.3,73a.51.51,0,0,0-.48,0Z"/><path class="cls-31" d="M247,75.14a.15.15,0,0,0,0,.28l1.38.82a.57.57,0,0,0,.48,0l1.41-.79a.15.15,0,0,0,0-.28l-1.38-.82a.51.51,0,0,0-.48,0Z"/><path class="cls-31" d="M244.52,76.52c-.14.08-.14.2,0,.28l1.38.82a.56.56,0,0,0,.49,0l1.4-.8a.15.15,0,0,0,0-.28l-1.38-.82a.57.57,0,0,0-.48,0Z"/><path class="cls-31" d="M242.07,77.91c-.14.07-.14.2,0,.28l1.37.81a.56.56,0,0,0,.49,0l1.4-.79c.13-.08.14-.2,0-.28L244,77.12a.54.54,0,0,0-.48,0Z"/><path class="cls-31" d="M239.62,79.29a.15.15,0,0,0,0,.28l1.38.82a.51.51,0,0,0,.48,0l1.4-.79a.15.15,0,0,0,0-.28l-1.38-.82a.51.51,0,0,0-.48,0Z"/><path class="cls-31" d="M251.83,75.19c-.13.07-.14.2,0,.27l1.38.82a.56.56,0,0,0,.49,0l3.85-2.18a.15.15,0,0,0,0-.28L256.16,73a.51.51,0,0,0-.48,0Z"/><path class="cls-31" d="M249.38,76.57a.15.15,0,0,0,0,.28l1.38.82a.54.54,0,0,0,.48,0l1.4-.79c.13-.08.14-.2,0-.28l-1.38-.82a.53.53,0,0,0-.49,0Z"/><path class="cls-31" d="M246.93,78a.14.14,0,0,0,0,.27l1.38.82a.54.54,0,0,0,.48,0l1.4-.8a.15.15,0,0,0,0-.28l-1.38-.82a.57.57,0,0,0-.48,0Z"/><path class="cls-31" d="M244.49,79.34a.15.15,0,0,0,0,.28l1.38.82a.54.54,0,0,0,.48,0l1.41-.79a.15.15,0,0,0,0-.28l-1.38-.82a.51.51,0,0,0-.48,0Z"/><path class="cls-31" d="M242,80.73c-.14.07-.14.2,0,.27l1.38.82a.56.56,0,0,0,.49,0l1.4-.8c.13-.07.13-.2,0-.28l-1.38-.81a.54.54,0,0,0-.48,0Z"/><path class="cls-31" d="M254.27,76.63c-.13.08-.14.2,0,.28l1.37.82a.53.53,0,0,0,.49,0L260,75.56a.15.15,0,0,0,0-.28l-1.38-.82a.54.54,0,0,0-.48,0Z"/><path class="cls-31" d="M251.82,78c-.14.07-.14.2,0,.28l1.38.82a.54.54,0,0,0,.48,0l1.4-.79c.14-.08.14-.2,0-.29l-1.38-.81a.56.56,0,0,0-.49,0Z"/><path class="cls-31" d="M249.37,79.4a.15.15,0,0,0,0,.28l1.38.82a.51.51,0,0,0,.48,0l1.4-.79a.15.15,0,0,0,0-.28l-1.38-.82a.51.51,0,0,0-.48,0Z"/><path class="cls-31" d="M246.93,80.79a.15.15,0,0,0,0,.28l1.38.82a.57.57,0,0,0,.48,0l1.41-.79c.13-.08.13-.21,0-.28L248.81,80a.54.54,0,0,0-.48,0Z"/><path class="cls-31" d="M237.17,80.68c-.13.07-.13.2,0,.28l1.38.81a.54.54,0,0,0,.48,0l1.4-.79c.14-.08.14-.21,0-.28l-1.38-.82a.54.54,0,0,0-.48,0Z"/><path class="cls-31" d="M239.59,82.11c-.13.08-.14.2,0,.28l1.38.82a.53.53,0,0,0,.49,0l1.4-.79c.13-.08.14-.2,0-.28l-1.38-.82a.51.51,0,0,0-.48,0Z"/><path class="cls-31" d="M244.48,82.17c-.14.08-.14.2,0,.28l1.38.82a.53.53,0,0,0,.49,0l1.4-.79a.15.15,0,0,0,0-.28l-1.38-.82a.54.54,0,0,0-.48,0Z"/><path class="cls-31" d="M242,83.56a.15.15,0,0,0,0,.28l1.38.81a.53.53,0,0,0,.49,0l1.4-.8c.13-.07.14-.2,0-.27l-1.38-.82a.54.54,0,0,0-.48,0Z"/><path class="cls-31" d="M254.15,79.4a.15.15,0,0,0,0,.28l1.38.81a.54.54,0,0,0,.48,0l6.3-3.57c.14-.07.14-.2,0-.27l-1.38-.82a.54.54,0,0,0-.48,0Z"/><path class="cls-31" d="M251.7,80.78c-.14.08-.14.2,0,.28l1.38.82a.51.51,0,0,0,.48,0l1.41-.79a.15.15,0,0,0,0-.28L253.58,80a.51.51,0,0,0-.48,0Z"/><path class="cls-31" d="M249.25,82.16c-.13.08-.14.21,0,.28l1.37.82a.56.56,0,0,0,.49,0l1.4-.8c.14-.07.14-.2,0-.28l-1.38-.81a.54.54,0,0,0-.48,0Z"/><path class="cls-31" d="M246.8,83.55a.15.15,0,0,0,0,.28l1.38.82a.51.51,0,0,0,.48,0l1.4-.79c.14-.08.14-.2,0-.28l-1.38-.82a.53.53,0,0,0-.49,0Z"/><path class="cls-31" d="M244.35,84.94c-.13.07-.13.19,0,.27l1.38.82a.54.54,0,0,0,.48,0l1.4-.8a.15.15,0,0,0,0-.28l-1.38-.82a.57.57,0,0,0-.48,0Z"/><path class="cls-31" d="M234.73,82.06c-.14.08-.14.2,0,.28l1.38.82a.51.51,0,0,0,.48,0l1.41-.79c.13-.07.13-.2,0-.28l-1.38-.82a.54.54,0,0,0-.48,0Z"/><path class="cls-31" d="M237.14,83.5c-.13.07-.14.19,0,.27l1.38.82a.54.54,0,0,0,.48,0l1.4-.8c.14-.07.14-.2,0-.28L239,82.71a.51.51,0,0,0-.48,0Z"/><path class="cls-31" d="M239.58,84.94c-.13.08-.14.2,0,.28L241,86a.51.51,0,0,0,.48,0l1.4-.79c.14-.08.14-.2,0-.28l-1.39-.82a.51.51,0,0,0-.48,0Z"/><path class="cls-31" d="M241.91,86.32c-.14.08-.14.2,0,.28l1.38.82a.54.54,0,0,0,.48,0l1.41-.79a.15.15,0,0,0,0-.28l-1.38-.82a.51.51,0,0,0-.48,0Z"/><path class="cls-31" d="M261.33,78c-.14.08-.14.2,0,.28l1.38.82a.51.51,0,0,0,.48,0l1.41-.79a.15.15,0,0,0,0-.28l-1.38-.82a.51.51,0,0,0-.48,0Z"/><path class="cls-31" d="M258.87,79.36c-.13.08-.13.21,0,.28l1.38.82a.54.54,0,0,0,.48,0l1.41-.8c.13-.07.13-.2,0-.28l-1.38-.81a.54.54,0,0,0-.48,0Z"/><path class="cls-31" d="M256.43,80.75c-.14.08-.14.2,0,.28l1.38.82a.53.53,0,0,0,.49,0l1.4-.79a.15.15,0,0,0,0-.28L258.31,80a.51.51,0,0,0-.48,0Z"/><path class="cls-31" d="M244.19,87.67c-.14.08-.14.2,0,.28l1.38.82a.53.53,0,0,0,.49,0l11.19-6.33c.14-.07.14-.2,0-.28l-1.38-.82a.57.57,0,0,0-.48,0Z"/><path class="cls-31" d="M232.28,83.45a.15.15,0,0,0,0,.28l1.38.81a.56.56,0,0,0,.49,0l1.4-.79c.13-.08.13-.21,0-.28l-1.38-.82a.54.54,0,0,0-.48,0Z"/><path class="cls-31" d="M229.83,84.83c-.13.08-.14.2,0,.28l1.38.82a.51.51,0,0,0,.48,0l1.4-.79c.13-.08.14-.2,0-.28L231.72,84a.56.56,0,0,0-.49,0Z"/><path class="cls-31" d="M224.93,87.6a.15.15,0,0,0,0,.28l1.38.82a.54.54,0,0,0,.48,0l3.85-2.19c.14-.07.14-.2,0-.27l-1.37-.82a.56.56,0,0,0-.49,0Z"/><path class="cls-31" d="M234.69,84.88c-.13.07-.13.2,0,.28l1.38.82a.51.51,0,0,0,.48,0l1.4-.79c.14-.08.14-.2,0-.28l-1.38-.82a.51.51,0,0,0-.48,0Z"/><path class="cls-31" d="M232.24,86.26a.15.15,0,0,0,0,.28l1.38.82a.54.54,0,0,0,.48,0l1.4-.8a.15.15,0,0,0,0-.28l-1.38-.81a.54.54,0,0,0-.48,0Z"/><path class="cls-31" d="M229.8,87.65a.15.15,0,0,0,0,.28l1.38.82a.54.54,0,0,0,.48,0l1.41-.79a.15.15,0,0,0,0-.28l-1.38-.82a.51.51,0,0,0-.48,0Z"/><path class="cls-31" d="M227.35,89c-.14.08-.14.21,0,.28l1.38.82a.51.51,0,0,0,.48,0l1.41-.79a.15.15,0,0,0,0-.28l-1.38-.82a.54.54,0,0,0-.48,0Z"/><path class="cls-31" d="M237.13,86.33c-.13.07-.13.2,0,.28l1.38.81a.54.54,0,0,0,.48,0l1.4-.79c.14-.08.14-.21,0-.28L239,85.54a.54.54,0,0,0-.48,0Z"/><path class="cls-31" d="M234.68,87.71a.15.15,0,0,0,0,.28l1.38.82a.51.51,0,0,0,.48,0l1.4-.79c.14-.08.14-.2,0-.28l-1.38-.82a.51.51,0,0,0-.48,0Z"/><path class="cls-31" d="M229.79,90.48c-.14.08-.14.2,0,.28l1.38.82a.51.51,0,0,0,.48,0l3.86-2.18a.14.14,0,0,0,0-.27l-1.38-.82a.54.54,0,0,0-.48,0Z"/><path class="cls-31" d="M239.46,87.71c-.13.07-.14.2,0,.27l1.38.82a.54.54,0,0,0,.48,0l1.41-.8c.13-.07.13-.2,0-.28l-1.38-.81a.54.54,0,0,0-.48,0Z"/><path class="cls-31" d="M237,89.09a.15.15,0,0,0,0,.28l1.39.82a.51.51,0,0,0,.48,0l1.4-.79c.13-.08.14-.2,0-.28l-1.38-.82a.51.51,0,0,0-.48,0Z"/><path class="cls-31" d="M232.11,91.86a.15.15,0,0,0,0,.28l1.38.82a.54.54,0,0,0,.48,0l3.85-2.18c.14-.07.14-.2,0-.28l-1.37-.82a.6.6,0,0,0-.49,0Z"/><path class="cls-31" d="M241.74,89.06a.15.15,0,0,0,0,.28l1.38.82a.56.56,0,0,0,.49,0l1.4-.79c.14-.08.14-.21,0-.28l-1.38-.82a.54.54,0,0,0-.48,0Z"/><path class="cls-31" d="M234.4,93.21c-.14.08-.14.2,0,.28l1.38.82a.56.56,0,0,0,.49,0l3.84-2.18c.14-.08.14-.2,0-.28L238.73,91a.56.56,0,0,0-.49,0Z"/><path class="cls-26" d="M253.72,73.47l1.4-.79a.17.17,0,0,0,.1-.14v.27a.17.17,0,0,1-.1.15l-1.4.79Z"/><path class="cls-30" d="M251.76,72.51a.17.17,0,0,0,.1.14l1.38.82a.54.54,0,0,0,.48,0v.28a.51.51,0,0,1-.48,0l-1.38-.81a.17.17,0,0,1-.1-.15Z"/><path class="cls-26" d="M251.27,74.86l1.4-.8c.07,0,.11-.09.11-.14v.28a.21.21,0,0,1-.11.14l-1.4.79Z"/><path class="cls-30" d="M249.31,73.89c0,.06,0,.1.1.14l1.38.82a.54.54,0,0,0,.48,0v.27a.51.51,0,0,1-.48,0l-1.38-.82a.17.17,0,0,1-.1-.14Z"/><path class="cls-26" d="M248.82,76.24l1.41-.79a.19.19,0,0,0,.1-.14v.27a.14.14,0,0,1-.09.14l-1.41.8Z"/><path class="cls-30" d="M246.87,75.28a.17.17,0,0,0,.09.14l1.38.82a.57.57,0,0,0,.48,0v.28a.54.54,0,0,1-.48,0L247,75.69a.14.14,0,0,1-.1-.13Z"/><path class="cls-26" d="M246.38,77.63l1.4-.8a.17.17,0,0,0,.1-.14V77s0,.1-.11.14l-1.4.79Z"/><path class="cls-30" d="M244.42,76.66a.17.17,0,0,0,.09.14l1.38.82a.56.56,0,0,0,.49,0v.27a.51.51,0,0,1-.48,0l-1.38-.82a.19.19,0,0,1-.1-.14Z"/><path class="cls-26" d="M243.93,79l1.4-.79a.17.17,0,0,0,.1-.14v.27a.21.21,0,0,1-.1.16l-1.4.8Z"/><path class="cls-30" d="M242,78.05a.17.17,0,0,0,.1.14l1.37.81a.56.56,0,0,0,.49,0v.28a.56.56,0,0,1-.49,0l-1.37-.82a.14.14,0,0,1-.1-.13Z"/><path class="cls-26" d="M241.48,80.39l1.4-.79c.07,0,.11-.09.11-.14v.28a.17.17,0,0,1-.1.14l-1.4.79Z"/><path class="cls-30" d="M239.52,79.43a.17.17,0,0,0,.1.14l1.38.82a.51.51,0,0,0,.48,0v.28a.51.51,0,0,1-.48,0l-1.38-.82a.17.17,0,0,1-.1-.14Z"/><path class="cls-26" d="M253.69,76.29l3.85-2.18a.19.19,0,0,0,.1-.14v.28s0,.1-.09.13l-3.85,2.18Z"/><path class="cls-30" d="M251.73,75.32a.15.15,0,0,0,.09.14l1.38.82a.56.56,0,0,0,.49,0v.27a.53.53,0,0,1-.49,0l-1.38-.82a.17.17,0,0,1-.1-.14Z"/><path class="cls-26" d="M251.24,77.67l1.4-.79a.17.17,0,0,0,.1-.14V77a.17.17,0,0,1-.1.15l-1.4.79Z"/><path class="cls-30" d="M249.28,76.71a.17.17,0,0,0,.1.14l1.38.82a.54.54,0,0,0,.48,0V78a.51.51,0,0,1-.48,0l-1.39-.82a.19.19,0,0,1-.1-.14Z"/><path class="cls-26" d="M248.79,79.06l1.4-.8a.15.15,0,0,0,.1-.13v.27a.17.17,0,0,1-.1.14l-1.4.79Z"/><path class="cls-30" d="M246.83,78.1a.15.15,0,0,0,.1.13l1.38.82a.54.54,0,0,0,.48,0v.27a.51.51,0,0,1-.48,0l-1.38-.82a.17.17,0,0,1-.1-.14Z"/><path class="cls-26" d="M246.34,80.44l1.41-.79a.19.19,0,0,0,.1-.14v.27a.18.18,0,0,1-.11.15l-1.4.79Z"/><path class="cls-30" d="M244.38,79.48a.19.19,0,0,0,.1.14l1.38.82a.54.54,0,0,0,.48,0v.28a.57.57,0,0,1-.48,0l-1.38-.82a.17.17,0,0,1-.1-.14Z"/><path class="cls-26" d="M243.9,81.83l1.4-.8a.16.16,0,0,0,.1-.14v.28a.19.19,0,0,1-.1.14l-1.41.79Z"/><path class="cls-30" d="M241.93,80.86a.17.17,0,0,0,.1.14l1.38.82a.56.56,0,0,0,.49,0v.27a.51.51,0,0,1-.48,0L242,81.28a.19.19,0,0,1-.1-.14Z"/><path class="cls-26" d="M256.13,77.73,260,75.56a.19.19,0,0,0,.1-.14v.27c0,.06,0,.1-.1.14L256.13,78Z"/><path class="cls-30" d="M254.17,76.77a.17.17,0,0,0,.1.14l1.37.82a.53.53,0,0,0,.49,0V78a.56.56,0,0,1-.49,0l-1.38-.82a.17.17,0,0,1-.09-.14Z"/><path class="cls-26" d="M253.68,79.12l1.4-.79c.07,0,.11-.09.11-.14v.27a.17.17,0,0,1-.1.14l-1.4.8Z"/><path class="cls-30" d="M251.72,78.16a.17.17,0,0,0,.1.14l1.38.82a.54.54,0,0,0,.48,0v.28a.54.54,0,0,1-.48,0l-1.39-.82a.15.15,0,0,1-.09-.14Z"/><path class="cls-26" d="M251.23,80.5l1.4-.79a.17.17,0,0,0,.1-.14v.28a.17.17,0,0,1-.1.14l-1.4.79Z"/><path class="cls-30" d="M249.27,79.54a.17.17,0,0,0,.1.14l1.38.82a.51.51,0,0,0,.48,0v.28a.51.51,0,0,1-.48,0L249.37,80a.17.17,0,0,1-.1-.14Z"/><path class="cls-26" d="M248.78,81.89l1.41-.79a.19.19,0,0,0,.1-.14v.27s0,.1-.11.14l-1.4.8Z"/><path class="cls-30" d="M246.82,80.93a.17.17,0,0,0,.1.14l1.38.82a.57.57,0,0,0,.48,0v.28a.54.54,0,0,1-.48,0l-1.38-.82a.15.15,0,0,1-.1-.14Z"/><path class="cls-26" d="M239,81.78l1.4-.79a.18.18,0,0,0,.11-.15v.28a.16.16,0,0,1-.1.14l-1.4.8Z"/><path class="cls-30" d="M237.07,80.82a.17.17,0,0,0,.1.14l1.38.81a.54.54,0,0,0,.48,0v.28a.54.54,0,0,1-.48,0l-1.38-.81c-.07,0-.1-.09-.1-.14Z"/><path class="cls-26" d="M241.45,83.21l1.4-.79a.17.17,0,0,0,.1-.14v.28a.16.16,0,0,1-.1.13l-1.41.8Z"/><path class="cls-30" d="M239.49,82.25a.17.17,0,0,0,.09.14l1.38.82a.53.53,0,0,0,.49,0v.28a.54.54,0,0,1-.48,0l-1.38-.81a.17.17,0,0,1-.09-.14Z"/><path class="cls-26" d="M246.34,83.27l1.4-.79a.17.17,0,0,0,.1-.14v.28a.17.17,0,0,1-.1.14l-1.41.79Z"/><path class="cls-30" d="M244.38,82.31a.17.17,0,0,0,.09.14l1.38.82a.53.53,0,0,0,.49,0v.28a.51.51,0,0,1-.48,0l-1.38-.82a.19.19,0,0,1-.1-.14Z"/><path class="cls-26" d="M243.89,84.66l1.4-.8a.14.14,0,0,0,.1-.13V84a.16.16,0,0,1-.1.14l-1.41.8Z"/><path class="cls-30" d="M241.93,83.69a.18.18,0,0,0,.09.15l1.38.81a.53.53,0,0,0,.49,0v.28a.54.54,0,0,1-.48,0L242,84.11a.17.17,0,0,1-.09-.13Z"/><path class="cls-26" d="M256,80.5l6.3-3.57a.16.16,0,0,0,.1-.14v.28a.17.17,0,0,1-.1.14L256,80.77Z"/><path class="cls-30" d="M254,79.54a.19.19,0,0,0,.1.14l1.38.81a.54.54,0,0,0,.48,0v.27a.51.51,0,0,1-.48,0L254.14,80a.17.17,0,0,1-.1-.14Z"/><path class="cls-26" d="M253.55,81.88l1.41-.79a.19.19,0,0,0,.1-.14v.28a.19.19,0,0,1-.1.14l-1.41.79Z"/><path class="cls-30" d="M251.6,80.92a.17.17,0,0,0,.09.14l1.38.82a.51.51,0,0,0,.48,0v.28a.54.54,0,0,1-.48,0l-1.38-.82a.19.19,0,0,1-.1-.14Z"/><path class="cls-26" d="M251.11,83.27l1.4-.8a.14.14,0,0,0,.1-.13v.27a.17.17,0,0,1-.1.14l-1.41.8Z"/><path class="cls-30" d="M249.15,82.31a.14.14,0,0,0,.1.13l1.37.82a.56.56,0,0,0,.49,0v.28a.54.54,0,0,1-.48,0l-1.37-.82a.15.15,0,0,1-.1-.13Z"/><path class="cls-26" d="M248.66,84.65l1.4-.79a.17.17,0,0,0,.1-.14V84a.17.17,0,0,1-.1.14l-1.4.79Z"/><path class="cls-30" d="M246.7,83.69a.17.17,0,0,0,.1.14l1.38.82a.51.51,0,0,0,.48,0v.28a.54.54,0,0,1-.48,0l-1.38-.82a.17.17,0,0,1-.1-.14Z"/><path class="cls-26" d="M246.21,86l1.4-.8a.16.16,0,0,0,.1-.14v.28a.17.17,0,0,1-.1.14l-1.4.8Z"/><path class="cls-30" d="M244.25,85.08a.14.14,0,0,0,.1.13l1.38.82a.54.54,0,0,0,.48,0v.28a.54.54,0,0,1-.48,0l-1.38-.82a.17.17,0,0,1-.1-.14Z"/><path class="cls-26" d="M236.58,83.16l1.41-.79a.19.19,0,0,0,.1-.14v.28a.19.19,0,0,1-.1.14l-1.41.79Z"/><path class="cls-30" d="M234.62,82.2a.19.19,0,0,0,.1.14l1.38.82a.51.51,0,0,0,.48,0v.28a.51.51,0,0,1-.48,0l-1.38-.82a.19.19,0,0,1-.1-.14Z"/><path class="cls-26" d="M239,84.6l1.4-.8a.17.17,0,0,0,.1-.14v.28a.17.17,0,0,1-.1.14l-1.4.79Z"/><path class="cls-30" d="M237,83.64a.17.17,0,0,0,.1.13l1.38.82a.54.54,0,0,0,.48,0v.27a.51.51,0,0,1-.48,0l-1.38-.82a.17.17,0,0,1-.1-.14Z"/><path class="cls-26" d="M241.44,86l1.4-.79a.17.17,0,0,0,.1-.14v.28a.17.17,0,0,1-.1.14l-1.4.79Z"/><path class="cls-30" d="M239.48,85.08a.17.17,0,0,0,.09.14L241,86a.51.51,0,0,0,.48,0v.28a.56.56,0,0,1-.49,0l-1.38-.82a.17.17,0,0,1-.09-.14Z"/><path class="cls-26" d="M243.76,87.42l1.41-.79a.19.19,0,0,0,.1-.14v.28a.15.15,0,0,1-.09.13l-1.41.8Z"/><path class="cls-30" d="M241.8,86.46a.17.17,0,0,0,.1.14l1.38.82a.54.54,0,0,0,.48,0v.28a.54.54,0,0,1-.48,0l-1.38-.81a.17.17,0,0,1-.1-.14Z"/><path class="cls-26" d="M263.18,79.08l1.41-.79a.17.17,0,0,0,.09-.14v.28a.14.14,0,0,1-.1.13l-1.4.8Z"/><path class="cls-30" d="M261.22,78.12a.17.17,0,0,0,.1.14l1.38.82a.51.51,0,0,0,.48,0v.28a.57.57,0,0,1-.48,0l-1.38-.82a.17.17,0,0,1-.1-.14Z"/><path class="cls-26" d="M260.73,80.47l1.41-.8c.07,0,.1-.08.1-.14v.28a.19.19,0,0,1-.1.14l-1.41.79Z"/><path class="cls-30" d="M258.77,79.5c0,.06,0,.1.1.14l1.38.82a.54.54,0,0,0,.48,0v.27a.51.51,0,0,1-.48,0l-1.38-.82a.17.17,0,0,1-.1-.14Z"/><path class="cls-26" d="M258.29,81.85l1.4-.79a.19.19,0,0,0,.1-.14v.28a.16.16,0,0,1-.1.13l-1.41.8Z"/><path class="cls-30" d="M256.33,80.89a.17.17,0,0,0,.09.14l1.38.82a.53.53,0,0,0,.49,0v.28a.51.51,0,0,1-.48,0l-1.38-.81a.21.21,0,0,1-.1-.14Z"/><path class="cls-26" d="M246.05,88.77l11.19-6.33a.15.15,0,0,0,.1-.13v.27a.17.17,0,0,1-.1.14L246,89.05Z"/><path class="cls-30" d="M244.09,87.81a.17.17,0,0,0,.09.14l1.38.82a.53.53,0,0,0,.49,0v.28a.51.51,0,0,1-.48,0l-1.38-.82c-.06,0-.1-.09-.09-.14Z"/><path class="cls-26" d="M234.14,84.55l1.4-.79a.17.17,0,0,0,.1-.14v.27a.19.19,0,0,1-.1.14l-1.41.8Z"/><path class="cls-30" d="M232.18,83.59s0,.1.09.14l1.38.81a.56.56,0,0,0,.49,0v.28a.54.54,0,0,1-.48,0L232.27,84a.17.17,0,0,1-.1-.14Z"/><path class="cls-26" d="M231.69,85.93l1.4-.79a.17.17,0,0,0,.1-.14v.28a.17.17,0,0,1-.1.14l-1.41.79Z"/><path class="cls-30" d="M229.73,85a.17.17,0,0,0,.1.14l1.38.82a.51.51,0,0,0,.48,0v.28a.51.51,0,0,1-.48,0l-1.37-.82a.17.17,0,0,1-.1-.14Z"/><path class="cls-26" d="M226.79,88.71l3.85-2.19a.14.14,0,0,0,.1-.13v.27a.17.17,0,0,1-.1.14L226.79,89Z"/><path class="cls-30" d="M224.83,87.74a.17.17,0,0,0,.1.14l1.38.82a.54.54,0,0,0,.48,0V89a.54.54,0,0,1-.48,0l-1.38-.82a.17.17,0,0,1-.1-.14Z"/><path class="cls-26" d="M236.55,86l1.4-.79a.17.17,0,0,0,.1-.14v.28a.14.14,0,0,1-.1.13l-1.4.8Z"/><path class="cls-30" d="M234.59,85a.17.17,0,0,0,.1.14l1.38.82a.51.51,0,0,0,.48,0v.28a.54.54,0,0,1-.48,0l-1.38-.81a.17.17,0,0,1-.1-.14Z"/><path class="cls-26" d="M234.1,87.37l1.4-.8c.07,0,.11-.09.11-.14v.28a.17.17,0,0,1-.1.14l-1.4.79Z"/><path class="cls-30" d="M232.14,86.4a.16.16,0,0,0,.1.14l1.38.82a.54.54,0,0,0,.48,0v.27a.51.51,0,0,1-.48,0l-1.38-.82a.17.17,0,0,1-.1-.14Z"/><path class="cls-26" d="M231.65,88.75l1.41-.79a.19.19,0,0,0,.1-.14v.28s0,.09-.1.14l-1.41.79Z"/><path class="cls-30" d="M229.69,87.79a.19.19,0,0,0,.1.14l1.38.82a.54.54,0,0,0,.48,0V89a.54.54,0,0,1-.48,0l-1.38-.81a.17.17,0,0,1-.1-.14Z"/><path class="cls-26" d="M229.2,90.13l1.41-.79a.17.17,0,0,0,.1-.14v.28a.17.17,0,0,1-.1.14l-1.41.79Z"/><path class="cls-30" d="M227.25,89.17a.16.16,0,0,0,.09.14l1.38.82a.51.51,0,0,0,.48,0v.28a.51.51,0,0,1-.48,0l-1.38-.82c-.06,0-.1-.09-.09-.14Z"/><path class="cls-26" d="M239,87.43l1.4-.79a.17.17,0,0,0,.1-.15v.28a.17.17,0,0,1-.1.14l-1.4.8Z"/><path class="cls-30" d="M237,86.46a.17.17,0,0,0,.1.15l1.38.81a.54.54,0,0,0,.48,0v.28a.54.54,0,0,1-.48,0l-1.38-.82a.16.16,0,0,1-.1-.14Z"/><path class="cls-26" d="M236.54,88.81l1.4-.79c.07,0,.11-.09.11-.14v.28s0,.1-.11.14l-1.4.79Z"/><path class="cls-30" d="M234.58,87.85a.17.17,0,0,0,.1.14l1.38.82a.51.51,0,0,0,.48,0v.28a.54.54,0,0,1-.48,0l-1.38-.82a.17.17,0,0,1-.1-.14Z"/><path class="cls-26" d="M231.64,91.58l3.86-2.18a.17.17,0,0,0,.1-.14v.28a.19.19,0,0,1-.1.14l-3.86,2.18Z"/><path class="cls-30" d="M229.69,90.62a.17.17,0,0,0,.09.14l1.38.82a.51.51,0,0,0,.48,0v.28a.54.54,0,0,1-.48,0L229.78,91a.22.22,0,0,1-.1-.14Z"/><path class="cls-26" d="M241.31,88.81l1.41-.8c.06,0,.1-.08.1-.14v.28a.19.19,0,0,1-.1.14l-1.41.8Z"/><path class="cls-30" d="M239.36,87.84a.14.14,0,0,0,.09.14l1.38.82a.54.54,0,0,0,.48,0v.28a.54.54,0,0,1-.48,0l-1.38-.82a.19.19,0,0,1-.1-.14Z"/><path class="cls-26" d="M238.87,90.19l1.4-.79a.17.17,0,0,0,.1-.14v.27a.17.17,0,0,1-.1.15l-1.4.79Z"/><path class="cls-30" d="M236.91,89.23a.17.17,0,0,0,.09.14l1.39.82a.51.51,0,0,0,.48,0v.28a.56.56,0,0,1-.49,0L237,89.65a.17.17,0,0,1-.09-.14Z"/><path class="cls-26" d="M234,93l3.85-2.18a.17.17,0,0,0,.1-.14v.28a.17.17,0,0,1-.1.14L234,93.24Z"/><path class="cls-30" d="M232,92a.17.17,0,0,0,.1.14l1.38.82a.54.54,0,0,0,.48,0v.28a.54.54,0,0,1-.48,0l-1.38-.81a.17.17,0,0,1-.1-.14Z"/><path class="cls-26" d="M243.6,90.16l1.4-.79a.17.17,0,0,0,.1-.14v.27a.15.15,0,0,1-.1.14l-1.4.8Z"/><path class="cls-30" d="M241.64,89.2a.17.17,0,0,0,.09.14l1.38.82a.56.56,0,0,0,.49,0v.28a.56.56,0,0,1-.49,0l-1.38-.82a.15.15,0,0,1-.09-.13Z"/><path class="cls-26" d="M241.15,91.54l1.4-.79a.17.17,0,0,0,.1-.14v.28a.17.17,0,0,1-.1.14l-1.4.79Z"/><path class="cls-30" d="M239.19,90.58a.17.17,0,0,0,.1.14l1.38.82a.51.51,0,0,0,.48,0v.28a.53.53,0,0,1-.49,0L239.29,91a.17.17,0,0,1-.1-.14Z"/><path class="cls-31" d="M239.29,90.44a.15.15,0,0,0,0,.28l1.38.82a.51.51,0,0,0,.48,0l1.4-.79a.15.15,0,0,0,0-.28l-1.38-.82a.56.56,0,0,0-.49,0Z"/><path class="cls-26" d="M236.26,94.32l3.84-2.18a.21.21,0,0,0,.11-.14v.27a.17.17,0,0,1-.1.14l-3.85,2.18Z"/><path class="cls-30" d="M234.29,93.35a.19.19,0,0,0,.1.14l1.38.82a.56.56,0,0,0,.49,0v.27a.51.51,0,0,1-.48,0l-1.38-.82a.19.19,0,0,1-.1-.14Z"/><path class="cls-32" d="M268.92,62.85a10.81,10.81,0,0,0-5.37-1.53l-5.08,2.95a10.79,10.79,0,0,1,5.37,1.54,21.55,21.55,0,0,1,4.39,3.59,1.81,1.81,0,0,0,2.22.35l2.27-1.32a1.42,1.42,0,0,0,.47-2A20.19,20.19,0,0,0,268.92,62.85Z"/><path class="cls-33" d="M263.84,65.81a22.56,22.56,0,0,1,5.36,4.66l-.11,0c-.27.11-.86-.18-1.38-.48L267,69.6,260.67,66l-.72-.4a4.32,4.32,0,0,1-1.38-1.11l-.1-.17A10.79,10.79,0,0,1,263.84,65.81Z"/><path class="cls-34" d="M258.51,63.56a.52.52,0,0,0,0,1c.19.08,1.09.26,1.4.35a13.78,13.78,0,0,1,3.2,1.37,20.07,20.07,0,0,1,4.52,3.7,1.91,1.91,0,0,0,1.24.65,2.92,2.92,0,0,0,2.23-.55l1.62-1a1.76,1.76,0,0,0,.43-2.68,20,20,0,0,1-1.46,2.87c-1.09.64-1.53,1-2.27,1a2.39,2.39,0,0,1-1.65-.65,20.58,20.58,0,0,0-4.65-3.8,12.6,12.6,0,0,0-3.92-1.49c-.3,0-.74-.1-.79-.29A.44.44,0,0,1,258.51,63.56Z"/><path class="cls-31" d="M272.92,66a19.76,19.76,0,0,0-4.34-3.47,11.47,11.47,0,0,0-4.5-1.57,3.44,3.44,0,0,0-2.06.52l-3.51,2.05a.32.32,0,0,0,.15.59c.24,0,.48.06.74.11a12.39,12.39,0,0,1,3.76,1.45,20.39,20.39,0,0,1,4,3.13l.47.5a2.43,2.43,0,0,0,3,.5l.18-.11,1.85-1.08a1.59,1.59,0,0,0,.4-2.47A1.06,1.06,0,0,0,272.92,66Z"/><path class="cls-35" d="M261.15,63.56a7.73,7.73,0,0,1,3.06.71,7.48,7.48,0,0,1,2.38,2,24.94,24.94,0,0,0-2.49-1.66A13.64,13.64,0,0,0,261.15,63.56Z"/><path class="cls-36" d="M214.91,64.08l11.86-6.89a2.52,2.52,0,0,0,.06,4.12L233.29,65a1.32,1.32,0,0,1,.59,1,.42.42,0,0,1-.17.39l-11.85,6.89A.45.45,0,0,0,222,73a1.3,1.3,0,0,0-.59-1L215,68.2a2.52,2.52,0,0,1-.06-4.12Z"/><polygon class="cls-37" points="222.45 57.84 234.3 50.95 235.14 52.41 223.29 59.3 222.45 57.84"/><polygon class="cls-38" points="214.07 62.62 225.93 55.73 234.3 50.95 222.45 57.84 214.07 62.62"/><path class="cls-39" d="M222.45,57.84l.84,1.46-8.38,4.78A2.52,2.52,0,0,0,215,68.2l6.47,3.73a1.3,1.3,0,0,1,.59,1c0,.38-.27.53-.59.34L215,69.57a5,5,0,0,1-2.28-3.94,3.32,3.32,0,0,1,1.38-3Z"/><path class="cls-40" d="M247.91.15l1.19.69a1.61,1.61,0,0,0-1.59.15L246.32.31A1.59,1.59,0,0,1,247.91.15Z"/><polygon class="cls-41" points="246 35.04 245.91 2.93 247.1 3.61 247.19 35.73 195.53 65.55 194.34 64.86 246 35.04"/><path class="cls-42" d="M191.92,73.56V69.48l1.2.7v4.07h0a1.56,1.56,0,0,0,.65,1.43L192.57,75a1.59,1.59,0,0,1-.65-1.44Z"/><path class="cls-29" d="M193.12,70.18l56.72-32.75v4.06a4.92,4.92,0,0,1-2.24,3.87L227.49,57l-12.16,7-20,11.53c-1.24.71-2.25.14-2.25-1.28Z"/><polygon class="cls-6" points="246.41 3.18 246.5 35.29 194.84 65.12 194.75 33.01 246.41 3.18"/><polygon class="cls-43" points="195.53 65.55 194.34 64.86 194.25 32.75 195.44 33.44 195.53 65.55"/><polygon class="cls-35" points="195.44 33.44 194.25 32.75 245.91 2.93 247.1 3.61 195.44 33.44"/><path class="cls-44" d="M191.85,34.33a5,5,0,0,1,2.23-3.86L246.32.31a1.59,1.59,0,0,1,1.59-.16l1.19.69a1.61,1.61,0,0,0-1.59.15L195.27,31.16A5,5,0,0,0,193,35L193.11,67v3.23l-1.2-.71v-3.2Z"/><path class="cls-45" d="M247.51,1c1.23-.71,2.24-.13,2.24,1.28.11,38.51.09,34.67.09,35.16L193.12,70.2V67L193,35a4.91,4.91,0,0,1,2.24-3.86Zm-.32,34.73L247.1,3.61,195.44,33.44l.09,32.11,51.66-29.83Z"/><path class="cls-46" d="M178.55,435.39l-5,2.25s-10,3.57-12,4.75a4.37,4.37,0,0,0-1.86,2.92,5.22,5.22,0,0,0,.21,2.67,8.2,8.2,0,0,0,4.51,2.91c3.37.62,10.49-.72,10.49-.72.92-.43,15.31-5,15.31-5a21.56,21.56,0,0,0,.67-2.81l.88-7Z"/><path class="cls-47" d="M161.54,442.39a5.09,5.09,0,0,1,.8-.42,10.44,10.44,0,0,1,4,1.79,10.3,10.3,0,0,1,4.34,6.36s-1.52.75-8.72-.36l-.25-.05a7.84,7.84,0,0,1-1.86-1.73,5.22,5.22,0,0,1-.21-2.67A4.37,4.37,0,0,1,161.54,442.39Z"/><path class="cls-48" d="M159.65,445.18c.11,1.39,2.79,3,4.49,3.52,5.82,1.77,23.51-3.66,24.33-4,1.93-.68,2.24-1.32,2.24-1.32a15.86,15.86,0,0,1-.48,1.95s-.38,2-1.5,2.45c-.9.39-7.91,1.82-9.72,2.22,0,0-10.39,2.25-15.28.93-1.71-.46-3.56-1.18-4.36-2.93A8.38,8.38,0,0,1,159.65,445.18Z"/><path class="cls-46" d="M207.53,446.1l-9.16,6.15s-4.22,2.82-6.22,4.32a4.65,4.65,0,0,0-1.57,3.3,5.63,5.63,0,0,0,.57,2.78,11.09,11.09,0,0,0,5.12,2.45c5.41,1.23,10.9-2.13,10.9-2.13.9-.57,15.39-7.21,15.39-7.21a22.74,22.74,0,0,0,.34-3v-7.48Z"/><path class="cls-47" d="M192.15,456.57l1.1-.81c.71-.11,2.2,0,5.07,1.47a15.37,15.37,0,0,1,6.23,5.95s-2.84,1.31-10.54,1.09l-.35,0a7.92,7.92,0,0,1-2.51-1.6,5.63,5.63,0,0,1-.57-2.78A4.65,4.65,0,0,1,192.15,456.57Z"/><path class="cls-48" d="M190.54,459.75c.29,1.44,4.09,3.09,5.9,3.57,9,2.34,23.43-7.4,24.26-7.81,1.93-1,2.16-1.69,2.16-1.69a16.21,16.21,0,0,1-.24,2.11s-.15,2.11-1.25,2.77c-.9.53-9.81,4.78-11.66,5.43,0,0-7.86,3.45-13.81,1.64-1.78-.54-4.21-1.26-5.28-3A8.51,8.51,0,0,1,190.54,459.75Z"/><path class="cls-49" d="M191.36,349.45c-1.24,9-10.89,41.46-11.51,54.2-.49,10-4.16,31.56-3.43,32.57,2.73,3.8,13.51,6.92,15.91,1.18,0,0,1.72-25.35,3.91-31.79,4.15-12.23,16.63-53,16.63-53Z"/><path class="cls-50" d="M202.85,350l2.93,58L205,447c.14,2,1.73,3.13,5.29,4a14.85,14.85,0,0,0,8.06-.66c2.69-.94,4.62-2.94,4.76-5.52l1.22-56,.74-40.53Z"/><path class="cls-51" d="M174.49,331.27a32.47,32.47,0,0,0-.14-5.07s8.08-14,13.48-24.49c5-9.71,9-7.8,9.57-7.48v.31l-4.9,24.11s-4.76,8.46-5.66,9.83a2.34,2.34,0,0,0-.48,2.31,11.1,11.1,0,0,0-9.6-1.34A4.5,4.5,0,0,0,174.49,331.27Z"/><path class="cls-52" d="M225.12,365.63s7-41.42,7.15-52.24c0-3.42-4.69-7.87-4.69-7.87-1.73-1.76-12.38-10.79-12.38-10.79s-1-1.44-1-1.42l-7.74-1.11s-8.3.32-10.81,4.22c-3.69,5.75-5,6.41-5.93,18.42l-2,48.41a7.91,7.91,0,0,0,2.24,5.75s10.7,6,17.07,6.23c9.65.39,14.49-3.54,14.49-3.54C225.59,369.75,225.24,365.07,225.12,365.63Z"/><path class="cls-53" d="M216.82,284.13l1.17,16s-1.75,6.21-6.73,7.93c-5.72,2-7.73-1.27-7.26-4.5s-2.88-11.19-2.88-11.19Z"/><path class="cls-53" d="M205.14,269.55h0l10.47,1.23-2,18.92c-.29,1.27-.38,2.45-.71,3.53a5.38,5.38,0,0,1-2.64,3.18,24.52,24.52,0,0,1-5.47,2.5c-1.18.31-8.3,3-9.54-4.35-.19-1-1.16-17.92-1.16-17.92l.44-10.17Z"/><path class="cls-54" d="M189.77,266.3c.73.52,3.82.94,3.32,6.4-.36,3.89,1.1,4.59,1,4.65a23.74,23.74,0,0,1,0-3c.08-1.54,2-1.22,3.1-.85a57.65,57.65,0,0,1,7.41,2.93c2.22,1.15,3.45,2.42,3.59,4.75l.33,3.46c.11,1.05.14,2.79,1,2.79s.56-.08.92-1c0,0,2.2-4.76,3.86-3.88,1.81,1,.69,4.57.54,4.79l2.15,4.59c0,.12.77-1.93,1.54-4.18,1.28-3.72,1.72-4.92,2.16-6.16,2-5.64,2.5-8.31,2.48-9.43,0-1.75-5.38-12.27-14.33-11.41-.55.05-4.21.76-4.78.86-.37.08-8.18,2.05-8,2.19a4.66,4.66,0,0,1,1.15,1.83c-.07-.16-1.34-1.42-2.53-1.06C191.2,265.69,189.77,266.3,189.77,266.3Z"/><g class="cls-55"><path class="cls-56" d="M205.45,284.48l-4.49-1.6a.9.9,0,0,0-.72,0,1.15,1.15,0,0,0-.27,1,3.44,3.44,0,0,0,.19,1.23,4.89,4.89,0,0,0,2.2,2.28l.08,0a9.21,9.21,0,0,0,1.9.6,2.23,2.23,0,0,0,1.53-.24,1.26,1.26,0,0,0,.46-1c0-.17,0-.23,0-.29a2.16,2.16,0,0,0,0-.48,1.6,1.6,0,0,0-.94-1.51Z"/></g><path class="cls-57" d="M217.78,287.24l-3-3.1a2.17,2.17,0,0,0-1.66-.38l-6.37.86a2.17,2.17,0,0,0-1-.84l-.13,0-4.25-1.52a1.66,1.66,0,0,0-1.49.12,1.64,1.64,0,0,0-.61,1.3l-1.34-.41c0-.17,0-.29,0-.46v-.55a2.72,2.72,0,0,0-1.78-2.32.64.64,0,0,0-.19-.07l-2-.92a1.37,1.37,0,0,0-1.31,0,1.87,1.87,0,0,0-.58,1.67c0,.87,0,1.07,0,1.08a2.84,2.84,0,0,0,1.95,2.68l1.49.59a2,2,0,0,0,1.65-.17,1.58,1.58,0,0,0,.62-.93,2.41,2.41,0,0,0,.45.21,2.8,2.8,0,0,0,1,.17,3.83,3.83,0,0,0,.24,1.28,5.45,5.45,0,0,0,2.55,2.61l.09,0a7.72,7.72,0,0,0,2,.62,2.81,2.81,0,0,0,2.09-.39,2.08,2.08,0,0,0,.78-1.59c0-.09,0-.13,0-.16a2.52,2.52,0,0,0,0-.61,2.78,2.78,0,0,0-.09-.67l6.31-.84a.77.77,0,0,1,.66.26l2.65,2.74a.61.61,0,0,0,.5.2l.57-.07C217.84,287.6,217.86,287.32,217.78,287.24Zm-20.68-4.48a3.57,3.57,0,0,1,0,.46,1.06,1.06,0,0,1-.33.84,1.2,1.2,0,0,1-.88.06l-1.37-.54-.08,0A2.06,2.06,0,0,1,193,281.7s0-.18,0-1.15c0-.71.16-.89.21-.92a.47.47,0,0,1,.4,0l2.11,1,.16.06c.12,0,1.26.56,1.24,1.52Zm9.16,3.68a1.77,1.77,0,0,0,0,.27,1.21,1.21,0,0,1-.44,1,2.16,2.16,0,0,1-1.47.23,8.76,8.76,0,0,1-1.81-.56l-.07,0a4.67,4.67,0,0,1-2.1-2.17,3.19,3.19,0,0,1-.18-1.18c0-.47.07-.8.25-.92a.89.89,0,0,1,.7,0l4.27,1.53h0a1.5,1.5,0,0,1,.9,1.44A2.66,2.66,0,0,1,206.26,286.44Z"/><path class="cls-54" d="M209.1,292.75c-.09,1.12-1.47,2.63-3.65,3.52l-1,.4a51.09,51.09,0,0,0-3.37-4.32,8.94,8.94,0,0,0-2.57-1.62c-.88-.39-3.07-1.19-3.07-1.19s-.59-.2-.54.62.09,3.25.09,3.25h0c0,1.19.07,3.24.67,4,.88,1.14,3,3.58,7.51,2.5s8.16-2.73,9-4.56a14.75,14.75,0,0,0,1.29-5.45S209.25,290.62,209.1,292.75Zm-9.89,4.63c-.75-.63-1-2.17-1.48-3s-1.27,1.33-1.69,1.29-.54-.53-.69-1.13c0-1.12-.08-3.59.64-3.42a22.1,22.1,0,0,1,3.41,1.43c.56.26,2.26,3.42,3,4.9C201.17,297.88,200,298,199.21,297.38Z"/><path class="cls-51" d="M189.71,331.73c.09-.83-.73-1.29-1.21-2.14-2-3.51-11.61-4.23-11.61-4.23l-14.6-6.19s-3.45-.9-4.7-.6c-3.62.88-5.87,5.81-5.87,5.81s18.89,11.2,27.7,14C183,339.51,189.36,337.51,189.71,331.73Z"/><path class="cls-53" d="M144.6,308.36s1.05,8.43,1.73,10.13,2.65,2.45,5,3.31,3.41,1.33,4.62,1.4c.79,0,2.42-.33,2.87-1.42s-5.21-8.43-5.21-8.43L148,306.17S144.91,305.8,144.6,308.36Z"/><path class="cls-58" d="M221.29,307.23s-1.9-.37-3.46,4.94-6.66,21-6.6,21.56c.66,5.71-7.59-1.05-8.47-1.5-2.55-1.27-16.39-8.48-16.39-8.48a8,8,0,0,0-3,.49,6.18,6.18,0,0,0-3.27,6.19s22.93,17.09,30.66,17.62c7.17.49,14.44-4.21,14.35-14.32,0-4.16,4.05-18.78,4.05-18.78S228.07,308.09,221.29,307.23Z"/><path class="cls-53" d="M214.05,281.75a3,3,0,0,0-3.31,2.27l-.71,5s-.21,1.67.6,1.84c1.55.35,2.82-.69,3.68-2.09.05-.09,1.18-2.17,1.24-2.3C216.52,284.73,216.62,282,214.05,281.75Z"/><path class="cls-59" d="M159.84,299.28l-12.37-2.43c-2.09-.41-3,.54-2.4,2.27L153.7,324c.6,1.73,1.09,2.26,3.18,2.67l12.72,2.51c1.5.29,2.86-.48,2.26-2.21l-8.68-25.15C162.58,300.12,161.94,299.69,159.84,299.28Z"/><rect class="cls-60" x="166.9" y="318.17" width="1.19" height="12.16" transform="translate(-187.06 237.74) rotate(-48.97)"/><path class="cls-61" d="M160.61,298.39,148.24,296c-2.09-.41-3,.54-2.4,2.27l8.63,24.91c.6,1.73,1.09,2.26,3.18,2.68l12.72,2.5c1.5.29,2.86-.48,2.26-2.21L164,301C163.35,299.23,162.71,298.81,160.61,298.39Z"/><path class="cls-62" d="M163.86,300.71l-2.46-2.14A3,3,0,0,1,163.86,300.71Z"/><path class="cls-62" d="M162.53,299l.8.7a4.48,4.48,0,0,1,.61,1.26l-2.79-2.43A5.67,5.67,0,0,1,162.53,299Z"/><path class="cls-63" d="M162.14,298.8l1.41,1.23a4.91,4.91,0,0,1,.4.94l.07.19-3.11-2.71A9,9,0,0,1,162.14,298.8Z"/><path class="cls-63" d="M161.84,298.69l1.85,1.62a6.06,6.06,0,0,1,.26.66l.15.42-3.43-3C161.12,298.5,161.51,298.59,161.84,298.69Z"/><path class="cls-63" d="M161.56,298.61l2.24,1.95c0,.13.1.26.15.41l.23.64-3.74-3.25.17,0C161,298.46,161.28,298.54,161.56,298.61Z"/><path class="cls-63" d="M161.3,298.54l2.59,2.26.06.17.3.87-4.05-3.53.41.08Z"/><path class="cls-64" d="M161.06,298.49,164,301l.36,1L160,298.27l.64.12Z"/><path class="cls-64" d="M160.82,298.44l3.23,2.81.36,1-4.67-4.07.87.17Z"/><polygon class="cls-64" points="160.58 298.39 164.13 301.47 164.49 302.51 159.5 298.18 160.58 298.39"/><polygon class="cls-65" points="160.35 298.34 164.21 301.7 164.56 302.74 159.27 298.13 160.35 298.34"/><polygon class="cls-66" points="160.12 298.3 164.28 301.92 164.64 302.96 159.04 298.09 160.12 298.3"/><polygon class="cls-66" points="159.88 298.25 164.36 302.15 164.72 303.19 158.81 298.04 159.88 298.25"/><polygon class="cls-66" points="159.65 298.2 164.44 302.37 164.8 303.41 158.57 297.99 159.65 298.2"/><polygon class="cls-67" points="159.42 298.16 164.52 302.6 164.87 303.63 158.34 297.95 159.42 298.16"/><polygon class="cls-68" points="159.18 298.11 164.59 302.82 164.95 303.86 158.11 297.9 159.18 298.11"/><polygon class="cls-68" points="158.95 298.07 164.67 303.05 165.03 304.08 157.87 297.86 158.95 298.07"/><polygon class="cls-68" points="158.72 298.02 164.75 303.27 165.11 304.31 157.64 297.81 158.72 298.02"/><polygon class="cls-68" points="158.49 297.98 164.83 303.5 165.18 304.53 157.41 297.76 158.49 297.98"/><polygon class="cls-68" points="158.25 297.93 164.9 303.72 165.26 304.76 157.18 297.72 158.25 297.93"/><polygon class="cls-68" points="158.02 297.89 164.98 303.94 165.34 304.98 156.94 297.67 158.02 297.89"/><polygon class="cls-69" points="157.79 297.84 165.06 304.17 165.42 305.2 156.71 297.63 157.79 297.84"/><polygon class="cls-70" points="157.55 297.79 165.13 304.39 165.49 305.43 156.48 297.58 157.55 297.79"/><polygon class="cls-70" points="157.32 297.75 165.21 304.62 165.57 305.66 156.24 297.54 157.32 297.75"/><polygon class="cls-70" points="157.09 297.7 165.29 304.84 165.65 305.88 156.01 297.49 157.09 297.7"/><polygon class="cls-71" points="156.85 297.65 165.37 305.07 165.73 306.1 155.78 297.44 156.85 297.65"/><polygon class="cls-72" points="156.62 297.61 165.45 305.29 165.8 306.33 155.54 297.4 156.62 297.61"/><polygon class="cls-72" points="156.39 297.56 165.52 305.52 165.88 306.55 155.31 297.35 156.39 297.56"/><polygon class="cls-73" points="156.15 297.52 165.6 305.74 165.96 306.78 155.08 297.31 156.15 297.52"/><polygon class="cls-74" points="155.92 297.47 165.68 305.96 166.04 307 154.84 297.26 155.92 297.47"/><polygon class="cls-74" points="155.69 297.43 165.75 306.19 166.11 307.23 154.61 297.22 155.69 297.43"/><polygon class="cls-74" points="155.46 297.38 165.83 306.41 166.19 307.45 154.38 297.17 155.46 297.38"/><polygon class="cls-73" points="155.22 297.33 165.91 306.64 166.27 307.68 154.15 297.12 155.22 297.33"/><polygon class="cls-75" points="154.99 297.29 165.99 306.86 166.35 307.9 153.91 297.08 154.99 297.29"/><polygon class="cls-75" points="154.75 297.24 166.07 307.09 166.42 308.13 153.68 297.03 154.75 297.24"/><polygon class="cls-75" points="154.52 297.2 166.14 307.31 166.5 308.35 153.45 296.99 154.52 297.2"/><polygon class="cls-76" points="154.29 297.15 166.22 307.54 166.58 308.57 153.21 296.94 154.29 297.15"/><polygon class="cls-77" points="154.06 297.11 166.3 307.76 166.66 308.8 152.98 296.9 154.06 297.11"/><polygon class="cls-77" points="153.82 297.06 166.38 307.99 166.73 309.02 152.75 296.85 153.82 297.06"/><polygon class="cls-78" points="153.59 297.01 166.45 308.21 166.81 309.25 152.51 296.8 153.59 297.01"/><polygon class="cls-79" points="153.36 296.97 166.53 308.44 166.89 309.47 152.28 296.76 153.36 296.97"/><polygon class="cls-80" points="153.12 296.92 166.61 308.66 166.97 309.7 152.05 296.71 153.12 296.92"/><polygon class="cls-80" points="152.89 296.88 166.69 308.88 167.04 309.92 151.81 296.67 152.89 296.88"/><polygon class="cls-81" points="152.66 296.83 166.76 309.11 167.12 310.15 151.58 296.62 152.66 296.83"/><polygon class="cls-82" points="152.43 296.79 166.84 309.33 167.2 310.37 151.35 296.57 152.43 296.79"/><polygon class="cls-82" points="152.19 296.74 166.92 309.56 167.28 310.6 151.12 296.53 152.19 296.74"/><polygon class="cls-83" points="151.96 296.69 167 309.78 167.35 310.82 150.88 296.48 151.96 296.69"/><polygon class="cls-82" points="151.72 296.65 167.07 310.01 167.43 311.04 150.65 296.44 151.72 296.65"/><polygon class="cls-84" points="151.49 296.6 167.15 310.23 167.51 311.27 150.42 296.39 151.49 296.6"/><polygon class="cls-84" points="151.26 296.56 167.23 310.46 167.59 311.49 150.18 296.35 151.26 296.56"/><polygon class="cls-85" points="151.03 296.51 167.31 310.68 167.66 311.72 149.95 296.3 151.03 296.51"/><polygon class="cls-86" points="150.79 296.47 167.38 310.91 167.74 311.94 149.72 296.25 150.79 296.47"/><polygon class="cls-86" points="150.56 296.42 167.46 311.13 167.82 312.17 149.48 296.21 150.56 296.42"/><polygon class="cls-86" points="150.33 296.38 167.54 311.36 167.9 312.39 149.25 296.16 150.33 296.38"/><polygon class="cls-87" points="150.09 296.33 167.62 311.58 167.97 312.62 149.02 296.12 150.09 296.33"/><polygon class="cls-88" points="149.86 296.28 167.69 311.8 168.05 312.84 148.78 296.07 149.86 296.28"/><polygon class="cls-88" points="149.63 296.24 167.77 312.03 168.13 313.06 148.55 296.02 149.63 296.24"/><polygon class="cls-89" points="149.4 296.19 167.85 312.25 168.21 313.29 148.32 295.98 149.4 296.19"/><path class="cls-90" d="M149.16,296.15l18.77,16.33.35,1-20.19-17.57.15,0Z"/><path class="cls-91" d="M148.93,296.1,168,312.7l.36,1-20.49-17.83.37,0Z"/><path class="cls-91" d="M148.7,296.05l19.38,16.88.36,1-20.77-18.08.57.08Z"/><path class="cls-92" d="M148.46,296l19.7,17.14.36,1-21.05-18.32a5.53,5.53,0,0,1,.77.09Z"/><path class="cls-93" d="M148.23,296l20,17.42.35,1-21.3-18.54A5.59,5.59,0,0,1,148.23,296Z"/><path class="cls-94" d="M148,295.92l20.31,17.68.36,1-21.55-18.76A3.85,3.85,0,0,1,148,295.92Z"/><path class="cls-95" d="M147.79,295.9l20.6,17.92.36,1L147,295.9A2.87,2.87,0,0,1,147.79,295.9Z"/><path class="cls-96" d="M147.59,295.88l20.88,18.17.36,1-22-19.17A2.77,2.77,0,0,1,147.59,295.88Z"/><path class="cls-96" d="M147.4,295.87l21.15,18.4.35,1L146.66,296A3.29,3.29,0,0,1,147.4,295.87Z"/><path class="cls-97" d="M147.22,295.87l21.4,18.63.36,1L146.53,296A2.36,2.36,0,0,1,147.22,295.87Z"/><path class="cls-98" d="M147.06,295.88l21.64,18.84.36,1L146.41,296A2.29,2.29,0,0,1,147.06,295.88Z"/><path class="cls-99" d="M146.9,295.9,168.78,315l.36,1L146.29,296.1A2,2,0,0,1,146.9,295.9Z"/><path class="cls-100" d="M146.75,295.93l22.11,19.24.35,1-23-20A1.51,1.51,0,0,1,146.75,295.93Z"/><path class="cls-100" d="M146.61,296l22.32,19.43.36,1-23.2-20.19A1.43,1.43,0,0,1,146.61,296Z"/><path class="cls-100" d="M146.48,296,169,315.62l.36,1L146,296.32A1.33,1.33,0,0,1,146.48,296Z"/><path class="cls-101" d="M146.36,296.07l22.73,19.78.36,1-23.52-20.47A1.12,1.12,0,0,1,146.36,296.07Z"/><path class="cls-102" d="M146.25,296.13l22.92,19.94.35,1-23.66-20.6A1.29,1.29,0,0,1,146.25,296.13Z"/><path class="cls-103" d="M146.15,296.2l23.09,20.09.36,1-23.8-20.71A1.1,1.1,0,0,1,146.15,296.2Z"/><path class="cls-104" d="M146.06,296.27l23.26,20.25.36,1-23.93-20.83A1.21,1.21,0,0,1,146.06,296.27Z"/><path class="cls-104" d="M146,296.36l23.42,20.38.36,1-24-20.92A1.11,1.11,0,0,1,146,296.36Z"/><path class="cls-105" d="M145.9,296.45,169.48,317l.35,1-24.14-21A1.18,1.18,0,0,1,145.9,296.45Z"/><path class="cls-103" d="M145.84,296.55l23.71,20.64.36,1-24.24-21.1A1.36,1.36,0,0,1,145.84,296.55Z"/><path class="cls-106" d="M145.78,296.66l23.85,20.76.36,1-24.33-21.17A1.52,1.52,0,0,1,145.78,296.66Z"/><path class="cls-106" d="M145.74,296.78l24,20.86.36,1-24.4-21.24A1.56,1.56,0,0,1,145.74,296.78Z"/><path class="cls-107" d="M145.7,296.9l24.09,21,.35,1-24.45-21.28A1.91,1.91,0,0,1,145.7,296.9Z"/><path class="cls-107" d="M145.68,297l24.18,21,.36,1-24.5-21.32A2.29,2.29,0,0,1,145.68,297Z"/><path class="cls-108" d="M145.66,297.19l24.28,21.13.36,1L145.77,298A2.81,2.81,0,0,1,145.66,297.19Z"/><path class="cls-109" d="M145.66,297.34,170,318.54l.36,1-24.54-21.36A3.13,3.13,0,0,1,145.66,297.34Z"/><path class="cls-110" d="M145.68,297.51l24.42,21.25.36,1-24.54-21.35-.08-.22A3,3,0,0,1,145.68,297.51Z"/><path class="cls-111" d="M145.7,297.69,170.17,319l.36,1L146,298.67l-.16-.44A4.32,4.32,0,0,1,145.7,297.69Z"/><path class="cls-111" d="M145.74,297.88l24.51,21.33.36,1L146.07,298.9l-.23-.67C145.8,298.11,145.77,298,145.74,297.88Z"/><path class="cls-112" d="M145.8,298.09l24.53,21.35.36,1-24.54-21.35-.31-.89C145.83,298.18,145.81,298.13,145.8,298.09Z"/><polygon class="cls-112" points="145.87 298.31 170.41 319.66 170.76 320.7 146.23 299.35 145.87 298.31"/><polygon class="cls-113" points="145.95 298.53 170.48 319.89 170.84 320.93 146.31 299.57 145.95 298.53"/><polygon class="cls-113" points="146.03 298.76 170.56 320.11 170.92 321.15 146.39 299.8 146.03 298.76"/><polygon class="cls-114" points="146.1 298.98 170.64 320.34 171 321.37 146.46 300.02 146.1 298.98"/><polygon class="cls-114" points="146.18 299.21 170.72 320.56 171.07 321.6 146.54 300.25 146.18 299.21"/><polygon class="cls-115" points="146.26 299.43 170.79 320.79 171.15 321.82 146.62 300.47 146.26 299.43"/><polygon class="cls-116" points="146.34 299.66 170.87 321.01 171.23 322.05 146.7 300.69 146.34 299.66"/><polygon class="cls-117" points="146.42 299.88 170.95 321.23 171.31 322.27 146.78 300.92 146.42 299.88"/><polygon class="cls-118" points="146.49 300.11 171.03 321.46 171.38 322.5 146.85 301.15 146.49 300.11"/><polygon class="cls-118" points="146.57 300.33 171.1 321.68 171.46 322.72 146.93 301.37 146.57 300.33"/><polygon class="cls-119" points="146.65 300.56 171.18 321.91 171.54 322.94 147.01 301.6 146.65 300.56"/><polygon class="cls-119" points="146.73 300.78 171.26 322.13 171.62 323.17 147.09 301.82 146.73 300.78"/><polygon class="cls-120" points="146.8 301.01 171.34 322.36 171.69 323.39 147.16 302.05 146.8 301.01"/><polygon class="cls-120" points="146.88 301.23 171.41 322.58 171.77 323.62 147.24 302.27 146.88 301.23"/><polygon class="cls-121" points="146.96 301.45 171.49 322.81 171.85 323.84 147.32 302.5 146.96 301.45"/><polygon class="cls-121" points="147.04 301.68 171.57 323.03 171.93 324.07 147.4 302.72 147.04 301.68"/><polygon class="cls-122" points="147.12 301.9 171.65 323.26 172 324.29 147.48 302.94 147.12 301.9"/><polygon class="cls-123" points="147.19 302.13 171.72 323.48 172.08 324.52 147.55 303.17 147.19 302.13"/><polygon class="cls-123" points="147.27 302.36 171.8 323.7 172.16 324.74 147.63 303.39 147.27 302.36"/><polygon class="cls-124" points="147.35 302.58 171.88 323.93 172.24 324.97 147.71 303.62 147.35 302.58"/><polygon class="cls-124" points="147.43 302.81 171.96 324.15 172.31 325.19 147.79 303.84 147.43 302.81"/><polygon class="cls-125" points="147.51 303.03 172.03 324.38 172.39 325.42 147.87 304.07 147.51 303.03"/><polygon class="cls-125" points="147.58 303.25 172.11 324.6 172.47 325.64 147.94 304.29 147.58 303.25"/><polygon class="cls-126" points="147.66 303.48 172.19 324.83 172.55 325.87 148.02 304.52 147.66 303.48"/><polygon class="cls-126" points="147.74 303.7 172.27 325.05 172.62 326.09 148.1 304.74 147.74 303.7"/><path class="cls-127" d="M147.82,303.93l24.52,21.35.29.83c0,.07.05.13.06.19L148.18,305Z"/><path class="cls-127" d="M147.9,304.16l24.52,21.34.21.61a4,4,0,0,1,.11.39l-24.49-21.31Z"/><path class="cls-128" d="M148,304.38l24.53,21.35.13.38a2.3,2.3,0,0,1,.13.57l-24.43-21.26Z"/><path class="cls-129" d="M148.05,304.6,172.58,326l0,.16a2.43,2.43,0,0,1,.15.74l-24.37-21.21Z"/><path class="cls-130" d="M148.13,304.83l24.52,21.34a2.16,2.16,0,0,1,.12.83l-24.28-21.13Z"/><path class="cls-131" d="M148.21,305.05l24.5,21.33a2.08,2.08,0,0,1,0,.77l-24.19-21.06Z"/><path class="cls-131" d="M148.28,305.28l24.47,21.29a1.85,1.85,0,0,1,0,.71l-24.09-21Z"/><path class="cls-132" d="M148.36,305.5l24.41,21.25a1.51,1.51,0,0,1-.08.65l-24-20.86Z"/><path class="cls-132" d="M148.44,305.73l24.34,21.18a1.48,1.48,0,0,1-.14.61L148.8,306.77Z"/><path class="cls-133" d="M148.52,306l24.25,21.11a1.53,1.53,0,0,1-.18.57L148.88,307Z"/><path class="cls-134" d="M148.6,306.18l24.15,21a1.34,1.34,0,0,1-.23.53L149,307.22Z"/><path class="cls-135" d="M148.67,306.4l24.05,20.93a1.37,1.37,0,0,1-.27.49L149,307.44Z"/><path class="cls-135" d="M148.75,306.63l23.92,20.82a1.31,1.31,0,0,1-.3.46l-23.26-20.24Z"/><path class="cls-136" d="M148.83,306.85l23.79,20.71a1.17,1.17,0,0,1-.34.42l-23.09-20.09Z"/><path class="cls-137" d="M148.91,307.08l23.65,20.59a1.56,1.56,0,0,1-.38.39l-22.91-19.94Z"/><path class="cls-138" d="M149,307.3l23.5,20.46a1.22,1.22,0,0,1-.42.36l-22.72-19.78Z"/><path class="cls-139" d="M149.06,307.53l23.36,20.32a1.39,1.39,0,0,1-.46.33l-22.54-19.61Z"/><path class="cls-139" d="M149.14,307.75l23.19,20.19a1.59,1.59,0,0,1-.49.29L149.5,308.79Z"/><path class="cls-140" d="M149.22,308l23,20a1.56,1.56,0,0,1-.53.27L149.58,309Z"/><path class="cls-141" d="M149.3,308.2l22.84,19.88a1.59,1.59,0,0,1-.57.23l-21.91-19.07Z"/><path class="cls-142" d="M149.37,308.43,172,328.14a1.7,1.7,0,0,1-.6.2l-21.69-18.87Z"/><path class="cls-140" d="M149.45,308.65l22.46,19.55a2.15,2.15,0,0,1-.64.17l-21.46-18.68Z"/><path class="cls-141" d="M149.53,308.88l22.26,19.37a2.17,2.17,0,0,1-.69.13l-21.21-18.46Z"/><path class="cls-141" d="M149.61,309.1l22,19.19a2.19,2.19,0,0,1-.73.09l-21-18.24Z"/><path class="cls-142" d="M149.69,309.33l21.83,19a2.93,2.93,0,0,1-.79,0l-20.68-18Z"/><path class="cls-143" d="M149.76,309.55l21.61,18.8a3,3,0,0,1-.84,0l-20.41-17.76Z"/><path class="cls-144" d="M149.84,309.78l21.37,18.59a3,3,0,0,1-.84-.05h-.07l-20.1-17.49Z"/><path class="cls-145" d="M149.92,310,171,328.38a3.88,3.88,0,0,1-.67-.06l-.31-.06L150.28,311Z"/><path class="cls-146" d="M150,310.23l20.85,18.15-.48-.06-.54-.11-19.47-16.95Z"/><path class="cls-146" d="M150.08,310.45l20.58,17.91-.29,0-.77-.15-19.16-16.68Z"/><path class="cls-144" d="M150.15,310.68l20.29,17.65h-.07l-1-.2-18.85-16.41Z"/><polygon class="cls-147" points="150.23 310.9 170.21 328.29 169.13 328.08 150.59 311.94 150.23 310.9"/><polygon class="cls-148" points="150.31 311.13 169.98 328.24 168.9 328.03 150.67 312.16 150.31 311.13"/><polygon class="cls-148" points="150.39 311.35 169.74 328.19 168.66 327.98 150.75 312.39 150.39 311.35"/><polygon class="cls-149" points="150.47 311.58 169.51 328.15 168.43 327.94 150.83 312.62 150.47 311.58"/><polygon class="cls-150" points="150.54 311.8 169.28 328.11 168.2 327.89 150.9 312.84 150.54 311.8"/><polygon class="cls-150" points="150.62 312.02 169.04 328.06 167.97 327.85 150.98 313.06 150.62 312.02"/><polygon class="cls-151" points="150.7 312.25 168.81 328.01 167.73 327.8 151.06 313.29 150.7 312.25"/><polygon class="cls-151" points="150.78 312.48 168.58 327.97 167.5 327.75 151.14 313.51 150.78 312.48"/><polygon class="cls-152" points="150.86 312.7 168.34 327.92 167.27 327.71 151.22 313.74 150.86 312.7"/><polygon class="cls-152" points="150.93 312.93 168.11 327.87 167.03 327.66 151.29 313.96 150.93 312.93"/><polygon class="cls-152" points="151.01 313.15 167.88 327.83 166.8 327.62 151.37 314.19 151.01 313.15"/><polygon class="cls-153" points="151.09 313.38 167.64 327.78 166.57 327.57 151.45 314.41 151.09 313.38"/><polygon class="cls-154" points="151.17 313.6 167.41 327.74 166.33 327.52 151.53 314.64 151.17 313.6"/><polygon class="cls-154" points="151.25 313.82 167.18 327.69 166.1 327.48 151.6 314.86 151.25 313.82"/><polygon class="cls-155" points="151.32 314.05 166.94 327.64 165.87 327.43 151.68 315.09 151.32 314.05"/><polygon class="cls-156" points="151.4 314.27 166.71 327.6 165.63 327.39 151.76 315.31 151.4 314.27"/><polygon class="cls-156" points="151.48 314.5 166.48 327.55 165.4 327.34 151.84 315.54 151.48 314.5"/><polygon class="cls-157" points="151.56 314.73 166.24 327.51 165.17 327.3 151.92 315.76 151.56 314.73"/><polygon class="cls-158" points="151.63 314.95 166.01 327.46 164.93 327.25 151.99 315.99 151.63 314.95"/><polygon class="cls-159" points="151.71 315.17 165.78 327.42 164.7 327.2 152.07 316.21 151.71 315.17"/><polygon class="cls-159" points="151.79 315.4 165.54 327.37 164.47 327.16 152.15 316.44 151.79 315.4"/><polygon class="cls-156" points="151.87 315.62 165.31 327.32 164.23 327.11 152.23 316.66 151.87 315.62"/><polygon class="cls-160" points="151.95 315.85 165.08 327.28 164 327.06 152.31 316.89 151.95 315.85"/><polygon class="cls-160" points="152.02 316.07 164.84 327.23 163.77 327.02 152.38 317.11 152.02 316.07"/><polygon class="cls-160" points="152.1 316.3 164.61 327.19 163.53 326.98 152.46 317.34 152.1 316.3"/><polygon class="cls-161" points="152.18 316.52 164.38 327.14 163.3 326.93 152.54 317.56 152.18 316.52"/><polygon class="cls-162" points="152.26 316.75 164.15 327.09 163.07 326.88 152.62 317.79 152.26 316.75"/><polygon class="cls-162" points="152.34 316.97 163.91 327.05 162.83 326.84 152.7 318.01 152.34 316.97"/><polygon class="cls-162" points="152.41 317.2 163.68 327 162.6 326.79 152.77 318.24 152.41 317.2"/><polygon class="cls-163" points="152.49 317.42 163.44 326.95 162.37 326.74 152.85 318.46 152.49 317.42"/><polygon class="cls-164" points="152.57 317.65 163.21 326.91 162.13 326.7 152.93 318.69 152.57 317.65"/><polygon class="cls-164" points="152.65 317.87 162.98 326.86 161.9 326.65 153.01 318.91 152.65 317.87"/><polygon class="cls-165" points="152.72 318.1 162.75 326.82 161.67 326.61 153.08 319.14 152.72 318.1"/><polygon class="cls-166" points="152.8 318.32 162.51 326.77 161.44 326.56 153.16 319.36 152.8 318.32"/><polygon class="cls-166" points="152.88 318.55 162.28 326.73 161.2 326.51 153.24 319.59 152.88 318.55"/><polygon class="cls-166" points="152.96 318.77 162.04 326.68 160.97 326.47 153.32 319.81 152.96 318.77"/><polygon class="cls-167" points="153.04 319 161.81 326.63 160.74 326.42 153.4 320.04 153.04 319"/><polygon class="cls-168" points="153.12 319.22 161.58 326.59 160.5 326.38 153.47 320.26 153.12 319.22"/><polygon class="cls-168" points="153.19 319.45 161.35 326.54 160.27 326.33 153.55 320.49 153.19 319.45"/><polygon class="cls-168" points="153.27 319.67 161.11 326.5 160.03 326.28 153.63 320.71 153.27 319.67"/><polygon class="cls-168" points="153.35 319.9 160.88 326.45 159.8 326.24 153.71 320.94 153.35 319.9"/><polygon class="cls-168" points="153.43 320.12 160.65 326.4 159.57 326.19 153.79 321.16 153.43 320.12"/><polygon class="cls-168" points="153.5 320.35 160.41 326.36 159.34 326.15 153.86 321.39 153.5 320.35"/><polygon class="cls-169" points="153.58 320.57 160.18 326.31 159.1 326.1 153.94 321.61 153.58 320.57"/><polygon class="cls-170" points="153.66 320.8 159.95 326.27 158.87 326.06 154.02 321.83 153.66 320.8"/><polygon class="cls-170" points="153.74 321.02 159.71 326.22 158.64 326.01 154.1 322.06 153.74 321.02"/><polygon class="cls-170" points="153.82 321.25 159.48 326.18 158.4 325.96 154.18 322.28 153.82 321.25"/><polygon class="cls-171" points="153.89 321.47 159.25 326.13 158.17 325.92 154.25 322.51 153.89 321.47"/><polygon class="cls-172" points="153.97 321.69 159.01 326.08 157.94 325.87 154.33 322.74 153.97 321.69"/><polygon class="cls-172" points="154.05 321.92 158.78 326.04 157.7 325.82 154.41 322.96 154.05 321.92"/><path class="cls-172" d="M154.13,322.15l4.42,3.84-.9-.17-.18,0-3-2.6,0,0Z"/><path class="cls-173" d="M154.21,322.37l4.1,3.58-.66-.13-.42-.09-2.66-2.32-.1-.27Z"/><path class="cls-173" d="M154.28,322.6l3.8,3.3-.43-.08c-.25-.05-.47-.1-.68-.16l-2.31-2c-.06-.16-.13-.33-.19-.51Z"/><path class="cls-173" d="M154.36,322.82l3.49,3-.2,0c-.36-.08-.67-.15-.94-.23l-2-1.69c-.1-.23-.19-.48-.29-.76Z"/><path class="cls-173" d="M154.44,323l3.17,2.77a9.23,9.23,0,0,1-1.2-.32l-1.52-1.33a7.35,7.35,0,0,1-.42-1Z"/><path class="cls-61" d="M154.52,323.27l2.86,2.49a5.71,5.71,0,0,1-1.32-.42l-1-.85A5.85,5.85,0,0,1,154.52,323.27Z"/><path class="cls-61" d="M154.6,323.5l2.53,2.2A3,3,0,0,1,154.6,323.5Z"/><path class="cls-59" d="M163.64,325c-.51-.1-.81.17-.66.59a1.69,1.69,0,0,0,1.19.95c.52.1.82-.16.67-.58A1.7,1.7,0,0,0,163.64,325Z"/><path class="cls-174" d="M163.77,325.31l.62.49.15.44-.34-.06a1.18,1.18,0,0,0-.07-.2.23.23,0,0,0-.18-.15c-.08,0-.13,0-.1.09l.06.2-.33-.07-.15-.44C163.54,325.52,163.66,325.42,163.77,325.31Z"/><path class="cls-174" d="M163.43,325.38l-.09-.26.15,0a1.21,1.21,0,0,0,0,.14l.17-.15.85.67-.05,0-.76-.6-.43.37a.5.5,0,0,1-.08-.07Z"/><polygon class="cls-6" points="148.44 298.66 162.94 301.38 170.85 325.19 155.92 321.92 148.44 298.66"/><path class="cls-53" d="M186,324.63l-3-3.17-3.18-3.35a13.09,13.09,0,0,0-2.37-2.12c-1.44-.57-3.34-.9-6.43.25a25.73,25.73,0,0,0-3.76,1.95s-2.36,2,2.21,2.94c2,.43,11,8.39,11,8.39Z"/><path class="cls-2" d="M386.41,263.55c-1.38,4.25-9,5.59-17.11,3s-13.5-8.17-12.12-12.42,9-5.59,17.1-3S387.78,259.3,386.41,263.55Z"/><path class="cls-2" d="M289,133.07c-2-4,2.61-10.29,10.22-14s15.38-3.52,17.35.49-2.6,10.29-10.22,14S291,137.08,289,133.07Z"/><polygon class="cls-175" points="400.07 192.72 378.46 205.19 404.79 220.36 426.37 207.9 400.07 192.72"/><polygon class="cls-176" points="383.98 205.08 401.61 215.47 418.02 205.08 400.65 195.46 383.98 205.08"/><path class="cls-177" d="M380.78,232.83c2.9,0,15.76,7.58,15.76,7.58C403,244,400.22,252,399,252.6c0,0-9.8,8-12.54,9.11-4.32,1.75-10.94,2.9-16.24.88-1.48-.56-4.56-.76-7.83-3.35-5.23-4.12-4.3-11.18-2.71-16.83C359.7,242.41,380.3,232.83,380.78,232.83Z"/><path class="cls-178" d="M380.53,197.6l8,16.86a4.52,4.52,0,0,1,.68,2.11,6.56,6.56,0,0,1-1.24,4c-1.28,2-3,3.54-3,6.23.12,5,.89,14.65,1.45,18.35.78,5.17-4.87,8.07-12,8.09-11.06,1.22-14.75-10.36-14.65-10.84,5.73-21.48-2.18-32.85-.81-40.62,2-7.69,10.91-7.54,11.2-8.13C370.09,193.66,379.93,196.56,380.53,197.6Z"/><path class="cls-179" d="M369.33,193.41c.38-1.64.69-1.38,1.45-.81l6.12,1.83c.74.68,4.89,1.73,5.52,3.55L384,201.9a12.61,12.61,0,0,1-4.05-2.05c-3.91-3-11.86-5.18-11.86-5.18C367.82,194.67,369.33,193.41,369.33,193.41Z"/><path class="cls-11" d="M382.16,168.47l5.08,1.35,1.69,2.6c0,3.24-.53,5.54-.91,8.8-.12,1,.75,3.48.41,4.41-.9,2.41-2.27,6.94-3.26,7.37-1.68.73-5.62-.36-7.92-.29-3.31.11-1.71-.62-4.72-4.68-2.68-3.59-2.12-5.84-2.15-6.37l-1.15-13.19Z"/><path class="cls-180" d="M364.27,199l-.15-.1c-.68.56-1.18.8-1.16.42a11.78,11.78,0,0,1,.12-1.35c-.09-.09-.16-.19-.24-.28a4.21,4.21,0,0,1-.56.51c-3.62,2.84-1,1.21-1.12-2.63,0-.78.64-3.27.45-2.92-1.32,2.47.26-3.49.3-3.68.84-4.42,1.13-3.78-.42-3.14.38-.36.94-3,1.31-4.82-.64-6.48-1.27-12.59,3.45-14.48,2.2-6.25,20.15-4.93,24.73,2.1-.56,7.12-8.17,7.81-8.94,9.63a18.12,18.12,0,0,0-1.14,4c1,3.55,3.37,6.28.46,3.81,0,0,.14,4.76-.06,5.82-.15.79-1.54,8.63-1.83,3.61,0-.07,0-.11,0-.15a8.43,8.43,0,0,1-.59,1.56c-.17.62-.35,1.24-.48,1.58-.37.92-4.05,6.27-4.05,4.1,0-2.37-.27-.54-4.2.11-.45.07-4.54.4-3.93.15,0,0,2.69-1.71.77-1.24-.47.12-6,.94-4.68-.39A29.11,29.11,0,0,0,364.27,199Z"/><path class="cls-181" d="M404.07,215.31a5,5,0,0,1,.18-2.53.79.79,0,0,0,.25.05,3.13,3.13,0,0,0,2.51-1.62c.11-.29.3-.65.47-1,.6-.2.73-.47.65-.7s-.18-.22-.32-.3l0-.24c.55-.13,1.57-.29,2,.07.56.52.22.65.48.9a2.44,2.44,0,0,1,.81,1.16c.21.68.6.38.21,2.05s-1.3,4.06-2,3.83Z"/><path class="cls-177" d="M409.26,217a32.64,32.64,0,0,1-4.82,4.85c-3.9,3.45-8.85,7.3-9.87,7.38-2.94.21-3.18,0-5.66-1.5-2.16-1.31-10.48-11-10.48-11s-5.34-4.95-3.17-8.85c2.38-4.26,7.31-3.18,10,.18,2.47,3.13,2.86,6.91,6,10.68,1.17,1.39,1.93,2.18,1.93,2.18l11.33-6.86C407.36,211.84,410.44,215.6,409.26,217Z"/><path class="cls-182" d="M411,208.54c-.8.25-6.08.93-6.31,1s-1.94.82-1.94.82a15.59,15.59,0,0,0,1.81.36l6.85-.85c.44-.05,1-.4.88-.88S411.75,208.35,411,208.54Z"/><path class="cls-181" d="M404.25,212.78c.18-.77.37-1.41.37-1.41s-1.28-.69-.77-1.33S406,210,406,210s.54.22,1.19.41.52.46.59.44a3.72,3.72,0,0,1-3.23,2C404.13,212.82,404.34,212.81,404.25,212.78Z"/><path class="cls-183" d="M277.46,65.88s-5.58-3.72-6.64-4.35c-2.1-1.26-7-.9-7-.9L260.29,62s-.55.41.31,1,2.89-.57,2.89-.57l3,.26s1.77.61,1.51,1.48c-.19.65-1.83.4-2.52.26-.47-.09-1.58-.17-1.93.22a.79.79,0,0,0,0,1.1,10.63,10.63,0,0,0,2.56.65c1.77.35,3,.76,4.07,1a4.09,4.09,0,0,0,2.57-.42l2.74,2Z"/><path class="cls-184" d="M298.7,58.4s17,5.82,6.3,19.37c-.84,1.07-4.6,1.65-7.51,4,0,0-3.45,2.75-8.24,0-3.57-2-16.29-12-16.29-12s-.41-1,1.36-3.14a3.52,3.52,0,0,1,2.41-1.4L291.83,73Z"/><path class="cls-183" d="M281.26,34.05,274,35.63l4.86,18.72c1.29,5.39,3.73,5.81,5.38,5.54,3.43-.58,6.9-3.18,8.62-4.65,3.32-2.85,2.12-9.2,2.06-9.72l-1-12.9Z"/><path class="cls-183" d="M300.38,60.38a31.46,31.46,0,0,1-3.45-4.2c-1-1.92-2-8.34-2-8.34L285.47,51s1.56,6.29,2.31,8.36c.47,1.3,2.55,5.11,2.55,5.11.15,1.58-7.19,13.36-6.73,18.28l17.65-7.53C301.05,73.09,300.38,60.38,300.38,60.38Z"/><path class="cls-185" d="M273.76,33c.59.32,1,.73.9.9-1.4,2.36-2.36,2.53-3,2.48-.34,0,1.64,3.95,3.66,4.16,1.69.18,5.14,5.92,5.7,7.19,0,0-.62-3-.3-3.3,1-.81,2.45-.24,4.48,4,0,0,2.18,3.53,4.83,3.42,2.93-.13,3.82,1.18,4.39,2.25,0,0-.21-1.35.39-1.8s.75,0,1,.2.41-2.17,2.38-6.84c3.93-9.32.18-15.26-2.28-16.37-.93-1.18-3.24-3.51-13.45-.79-.54.15-3.54,1.07-5.68.17-.12-.05.39.9,1.52,1.52.39.21-2.2,1-3.55.73-.4-.09,1,1.13,1.19,1.18C276.5,32.24,273.76,33,273.76,33Z"/><path class="cls-186" d="M281,44.17a2.82,2.82,0,0,1,2.34,1.77,3.21,3.21,0,0,1,0,2.68,2.83,2.83,0,0,1-1.21,1.18s-.37-3-.47-3.59A21,21,0,0,0,281,44.17Z"/><path class="cls-187" d="M280.21,43.61s-.9.07-.1,1.26a6.35,6.35,0,0,1,1.16,2.65c.11.66.21,2.65.21,2.65s.66.73,1-.53a7.85,7.85,0,0,0,0-3.11C282.43,46,281.14,43.2,280.21,43.61Z"/><path class="cls-13" d="M247.66,156.34s2.55,4.66,1.89,8a9.37,9.37,0,0,1-1.76,3.72c-.76.75-2.09,1-4.13.91a42,42,0,0,1-5.85-1,66.34,66.34,0,0,1-6.65-1.12c-6.27-1.42-10-4.94-10.7-6.51a6.09,6.09,0,0,1-.39-2.72,5.64,5.64,0,0,1,.52-2c5.19.57,15.44,2.38,17.22.16S247.66,156.34,247.66,156.34Z"/><path class="cls-4" d="M248.06,154.47a8.62,8.62,0,0,1,1.59,5.22c0,3.38-.35,4.7-1.15,5.4s-2.4,2.09-4.44,2c-2.42-.14-5-.53-6.21-.7a32,32,0,0,1-7-.94c-4.44-1.06-9.39-4.8-9.93-6.42-.48-1.43-1.77-5.31,3.42-4.74s12.09,1.83,13.87-.39S248.06,154.47,248.06,154.47Z"/><path class="cls-188" d="M244.55,161.75c.95-2.95,4.44-5,4.44-5l.17-.09a9.75,9.75,0,0,1,.73,3c0,3.37-.23,5.26-1,5.95a7.46,7.46,0,0,1-4.8,1.44l-.31,0A18.67,18.67,0,0,1,244.55,161.75Z"/><path class="cls-189" d="M308.68,93.55l-19.26,10-6.25,9.5-27-5c-8.42-1.62-11.57,3.45-12.48,15.83,0,0-3.35,23-7,30.79-.45,1,0,5.74,7.53,6.77,2.88.4,6-1.41,5.87-2.36l8.28-35.79,27,7.18c11.85,3.16,16.71-.41,21-3.75,4.5-3.5,4.81-13.9,4.81-13.9Z"/><path class="cls-190" d="M283.28,71.34c-1.92,2.39-1.61,9.54-.9,17.25L283.73,109c.13,1.34-2.1,11.56,3.6,14.1,2,.89,8.88,4.66,13.6,2.58,1.93-.84,10.72-6.88,10.46-9.7l-2.76-43a18.42,18.42,0,0,0-10.2-14.86L290.63,64Z"/><path class="cls-183" d="M249.34,90.33s-6.69-1.42-9.1-1.09-6.92,2.81-6.92,2.81a22.8,22.8,0,0,0-3.06,2.71c-.5.62-.89,1.67-.3,2.21s5.42-1,6.85-1.21c2-.33,5.06.8,7.29,1.21a12.48,12.48,0,0,0,4.92-.39Z"/><path class="cls-184" d="M246.37,93.31a9.31,9.31,0,0,0,.85,4.48S262,100.27,264,100.57c2.89.41,4.25,0,6.89-1.07,4.88-2,15.1-11.65,15.1-11.65s7.38-6.17,4.87-12.24c-1.84-4.48-5.3-6.66-8.16-3.52-2.66,2.92-11,12.35-14.4,15.84a5.91,5.91,0,0,1-4.85,1.79l-13.83-.61a2.31,2.31,0,0,0-2.36.67C246.7,90.4,246.39,92.23,246.37,93.31Z"/></g></g></g></svg>